<svg width="333" height="66" viewBox="0 0 333 66" fill="none" xmlns="http://www.w3.org/2000/svg">
<g clip-path="url(#clip0_4_3)">
<path d="M114.211 3.65088L114.775 10.5474H114.211C113.642 8.82861 112.906 7.53418 112.004 6.66406C110.704 5.40723 109.034 4.77881 106.993 4.77881C104.21 4.77881 102.094 5.87988 100.644 8.08203C99.4302 9.94043 98.8232 12.1533 98.8232 14.7207C98.8232 16.8047 99.2261 18.7061 100.032 20.4248C100.837 22.1436 101.89 23.4058 103.19 24.2114C104.5 25.0063 105.843 25.4038 107.218 25.4038C108.024 25.4038 108.803 25.3018 109.555 25.0977C110.307 24.8936 111.032 24.5928 111.73 24.1953V17.8789C111.73 16.7832 111.644 16.0688 111.472 15.7358C111.311 15.3921 111.053 15.1343 110.699 14.9624C110.355 14.7798 109.743 14.6885 108.862 14.6885V14.0762H117.321V14.6885H116.918C116.081 14.6885 115.506 14.9678 115.194 15.5264C114.979 15.9238 114.872 16.708 114.872 17.8789V24.5659C113.637 25.2319 112.417 25.7207 111.214 26.0322C110.011 26.3438 108.674 26.4995 107.202 26.4995C102.98 26.4995 99.7739 25.146 97.5825 22.439C95.939 20.4087 95.1172 18.0669 95.1172 15.4136C95.1172 13.4907 95.5791 11.6484 96.5029 9.88672C97.5986 7.79199 99.1025 6.18066 101.015 5.05273C102.615 4.11816 104.506 3.65088 106.687 3.65088C107.481 3.65088 108.201 3.71533 108.846 3.84424C109.501 3.97314 110.425 4.25781 111.617 4.69824C112.219 4.92383 112.622 5.03662 112.826 5.03662C113.03 5.03662 113.202 4.94531 113.341 4.7627C113.492 4.56934 113.583 4.19873 113.615 3.65088H114.211ZM132.935 3.65088V11.208H132.339C132.146 9.75781 131.796 8.60303 131.292 7.74365C130.797 6.88428 130.088 6.20215 129.165 5.69727C128.241 5.19238 127.285 4.93994 126.296 4.93994C125.179 4.93994 124.255 5.28369 123.525 5.97119C122.794 6.64795 122.429 7.42139 122.429 8.2915C122.429 8.95752 122.66 9.56445 123.122 10.1123C123.788 10.918 125.373 11.9922 127.875 13.335C129.917 14.4307 131.308 15.2739 132.049 15.8647C132.801 16.4448 133.375 17.1323 133.773 17.9272C134.181 18.7222 134.385 19.5547 134.385 20.4248C134.385 22.0791 133.741 23.5078 132.452 24.7109C131.173 25.9033 129.524 26.4995 127.505 26.4995C126.871 26.4995 126.275 26.4512 125.716 26.3545C125.383 26.3008 124.69 26.1074 123.638 25.7744C122.596 25.4307 121.935 25.2588 121.656 25.2588C121.387 25.2588 121.172 25.3394 121.011 25.5005C120.861 25.6616 120.748 25.9946 120.673 26.4995H120.077V19.0068H120.673C120.952 20.5752 121.328 21.7515 121.801 22.5356C122.273 23.3091 122.993 23.9536 123.96 24.4692C124.938 24.9849 126.006 25.2427 127.167 25.2427C128.509 25.2427 129.567 24.8882 130.341 24.1792C131.125 23.4702 131.517 22.6323 131.517 21.6655C131.517 21.1284 131.367 20.5859 131.066 20.0381C130.776 19.4902 130.319 18.98 129.696 18.5073C129.277 18.1851 128.133 17.5029 126.264 16.4609C124.395 15.4082 123.063 14.5703 122.268 13.9473C121.484 13.3242 120.888 12.6367 120.479 11.8848C120.071 11.1328 119.867 10.3057 119.867 9.40332C119.867 7.83496 120.469 6.48682 121.672 5.35889C122.875 4.22021 124.406 3.65088 126.264 3.65088C127.424 3.65088 128.654 3.93555 129.954 4.50488C130.556 4.77344 130.98 4.90771 131.227 4.90771C131.506 4.90771 131.732 4.82715 131.904 4.66602C132.086 4.49414 132.231 4.15576 132.339 3.65088H132.935ZM149.677 26L141.233 7.61475V22.2134C141.233 23.5562 141.378 24.394 141.668 24.7271C142.066 25.1782 142.694 25.4038 143.554 25.4038H144.327V26H136.722V25.4038H137.495C138.419 25.4038 139.074 25.1245 139.461 24.5659C139.697 24.2222 139.815 23.438 139.815 22.2134V7.93701C139.815 6.97021 139.708 6.27197 139.493 5.84229C139.343 5.53076 139.063 5.27295 138.655 5.06885C138.258 4.854 137.613 4.74658 136.722 4.74658V4.15039H142.909L150.837 21.2466L158.636 4.15039H164.823V4.74658H164.066C163.131 4.74658 162.471 5.02588 162.084 5.58447C161.848 5.92822 161.729 6.7124 161.729 7.93701V22.2134C161.729 23.5562 161.88 24.394 162.181 24.7271C162.578 25.1782 163.207 25.4038 164.066 25.4038H164.823V26H155.542V25.4038H156.315C157.25 25.4038 157.905 25.1245 158.281 24.5659C158.518 24.2222 158.636 23.438 158.636 22.2134V7.61475L150.208 26H149.677ZM169.045 16.7993C169.034 18.9907 169.566 20.7095 170.64 21.9556C171.714 23.2017 172.977 23.8247 174.427 23.8247C175.394 23.8247 176.231 23.5615 176.94 23.0352C177.66 22.498 178.262 21.585 178.745 20.2959L179.245 20.6182C179.019 22.0898 178.364 23.4326 177.279 24.6465C176.194 25.8496 174.835 26.4512 173.202 26.4512C171.43 26.4512 169.91 25.7637 168.642 24.3887C167.385 23.0029 166.757 21.1445 166.757 18.8135C166.757 16.2891 167.401 14.3232 168.69 12.916C169.99 11.498 171.618 10.7891 173.573 10.7891C175.227 10.7891 176.586 11.3369 177.649 12.4326C178.713 13.5176 179.245 14.9731 179.245 16.7993H169.045ZM169.045 15.8647H175.877C175.823 14.9194 175.71 14.2534 175.539 13.8667C175.27 13.2651 174.867 12.7925 174.33 12.4487C173.804 12.105 173.25 11.9331 172.67 11.9331C171.779 11.9331 170.979 12.2822 170.27 12.9805C169.571 13.668 169.163 14.6294 169.045 15.8647ZM185.593 3.08691V17.7661L189.348 14.3501C190.143 13.6196 190.604 13.1577 190.733 12.9644C190.819 12.8354 190.862 12.7065 190.862 12.5776C190.862 12.3628 190.771 12.1802 190.588 12.0298C190.417 11.8687 190.126 11.7773 189.718 11.7559V11.2402H196.131V11.7559C195.25 11.7773 194.515 11.9116 193.924 12.1587C193.344 12.4058 192.705 12.8462 192.006 13.48L188.22 16.9766L192.006 21.7622C193.059 23.0835 193.768 23.9214 194.133 24.2759C194.649 24.7808 195.1 25.1084 195.487 25.2588C195.755 25.3662 196.223 25.4199 196.889 25.4199V26H189.718V25.4199C190.126 25.4092 190.4 25.3501 190.54 25.2427C190.69 25.1245 190.766 24.9634 190.766 24.7593C190.766 24.5122 190.551 24.1147 190.121 23.5669L185.593 17.7822V22.6807C185.593 23.6367 185.658 24.2651 185.787 24.5659C185.926 24.8667 186.12 25.0815 186.367 25.2104C186.614 25.3394 187.151 25.4092 187.978 25.4199V26H180.469V25.4199C181.221 25.4199 181.785 25.3286 182.161 25.146C182.387 25.0278 182.559 24.8452 182.677 24.5981C182.838 24.2437 182.918 23.6313 182.918 22.7612V9.32275C182.918 7.61475 182.881 6.57275 182.806 6.19678C182.73 5.81006 182.607 5.54688 182.435 5.40723C182.263 5.25684 182.038 5.18164 181.758 5.18164C181.533 5.18164 181.194 5.27295 180.743 5.45557L180.469 4.8916L184.852 3.08691H185.593ZM202.013 6.39014V11.2402H205.461V12.3682H202.013V21.9395C202.013 22.8955 202.147 23.54 202.416 23.873C202.695 24.2061 203.049 24.3726 203.479 24.3726C203.833 24.3726 204.177 24.2651 204.51 24.0503C204.843 23.8247 205.101 23.4971 205.284 23.0674H205.912C205.536 24.1201 205.004 24.915 204.317 25.4521C203.629 25.9785 202.92 26.2417 202.19 26.2417C201.696 26.2417 201.212 26.1074 200.74 25.8389C200.267 25.5596 199.918 25.1675 199.692 24.6626C199.467 24.147 199.354 23.3574 199.354 22.2939V12.3682H197.018V11.8364C197.608 11.6001 198.21 11.2026 198.822 10.644C199.445 10.0747 199.999 9.40332 200.482 8.62988C200.729 8.22168 201.073 7.4751 201.513 6.39014H202.013ZM209.393 16.7993C209.382 18.9907 209.914 20.7095 210.988 21.9556C212.062 23.2017 213.324 23.8247 214.774 23.8247C215.741 23.8247 216.579 23.5615 217.288 23.0352C218.008 22.498 218.609 21.585 219.093 20.2959L219.592 20.6182C219.367 22.0898 218.711 23.4326 217.626 24.6465C216.542 25.8496 215.183 26.4512 213.55 26.4512C211.777 26.4512 210.257 25.7637 208.99 24.3887C207.733 23.0029 207.104 21.1445 207.104 18.8135C207.104 16.2891 207.749 14.3232 209.038 12.916C210.338 11.498 211.965 10.7891 213.92 10.7891C215.575 10.7891 216.934 11.3369 217.997 12.4326C219.061 13.5176 219.592 14.9731 219.592 16.7993H209.393ZM209.393 15.8647H216.225C216.171 14.9194 216.058 14.2534 215.886 13.8667C215.618 13.2651 215.215 12.7925 214.678 12.4487C214.151 12.105 213.598 11.9331 213.018 11.9331C212.126 11.9331 211.326 12.2822 210.617 12.9805C209.919 13.668 209.511 14.6294 209.393 15.8647ZM220.511 12.7065L225.055 10.8696H225.667V14.3179C226.43 13.0181 227.192 12.1104 227.955 11.5947C228.729 11.0684 229.54 10.8052 230.388 10.8052C231.871 10.8052 233.106 11.3853 234.094 12.5454C235.308 13.9634 235.915 15.811 235.915 18.0884C235.915 20.6343 235.185 22.7397 233.724 24.4048C232.521 25.769 231.006 26.4512 229.18 26.4512C228.385 26.4512 227.697 26.3384 227.117 26.1128C226.688 25.9517 226.204 25.6294 225.667 25.146V29.6416C225.667 30.6514 225.726 31.2905 225.844 31.5591C225.973 31.8384 226.188 32.0586 226.489 32.2197C226.8 32.3809 227.359 32.4614 228.165 32.4614V33.0576H220.43V32.4614H220.833C221.424 32.4722 221.929 32.3594 222.348 32.123C222.552 32.0049 222.708 31.8115 222.815 31.543C222.933 31.2852 222.992 30.6191 222.992 29.5449V15.5908C222.992 14.6348 222.949 14.0278 222.863 13.77C222.777 13.5122 222.638 13.3188 222.444 13.1899C222.262 13.061 222.009 12.9966 221.687 12.9966C221.429 12.9966 221.102 13.0718 220.704 13.2222L220.511 12.7065ZM225.667 15.2686V20.7793C225.667 21.9717 225.715 22.7559 225.812 23.1318C225.962 23.7549 226.328 24.3027 226.908 24.7754C227.499 25.248 228.24 25.4844 229.131 25.4844C230.206 25.4844 231.076 25.0654 231.742 24.2275C232.612 23.1318 233.047 21.5903 233.047 19.603C233.047 17.3472 232.553 15.6123 231.564 14.3984C230.877 13.5605 230.061 13.1416 229.115 13.1416C228.6 13.1416 228.089 13.2705 227.584 13.5283C227.198 13.7217 226.559 14.3018 225.667 15.2686Z" fill="black"/>
<path d="M109.188 42.4531H105.086L104.367 44.125C104.19 44.5365 104.102 44.8438 104.102 45.0469C104.102 45.2083 104.177 45.3516 104.328 45.4766C104.484 45.5964 104.818 45.6745 105.328 45.7109V46H101.992V45.7109C102.435 45.6328 102.721 45.5312 102.852 45.4062C103.117 45.1562 103.411 44.6484 103.734 43.8828L107.461 35.1641H107.734L111.422 43.9766C111.719 44.6849 111.987 45.1458 112.227 45.3594C112.471 45.5677 112.81 45.6849 113.242 45.7109V46H109.062V45.7109C109.484 45.6901 109.768 45.6198 109.914 45.5C110.065 45.3802 110.141 45.2344 110.141 45.0625C110.141 44.8333 110.036 44.4714 109.828 43.9766L109.188 42.4531ZM108.969 41.875L107.172 37.5938L105.328 41.875H108.969ZM122.602 43.0703L122.859 43.125L121.953 46H113.75V45.7109H114.148C114.596 45.7109 114.917 45.5651 115.109 45.2734C115.219 45.1068 115.273 44.7214 115.273 44.1172V37.2812C115.273 36.6198 115.201 36.2057 115.055 36.0391C114.852 35.8099 114.549 35.6953 114.148 35.6953H113.75V35.4062H118.547V35.6953C117.984 35.6901 117.589 35.7422 117.359 35.8516C117.135 35.9609 116.982 36.099 116.898 36.2656C116.815 36.4323 116.773 36.8307 116.773 37.4609V44.1172C116.773 44.5495 116.815 44.8464 116.898 45.0078C116.961 45.1172 117.057 45.1979 117.188 45.25C117.318 45.3021 117.724 45.3281 118.406 45.3281H119.18C119.992 45.3281 120.562 45.2682 120.891 45.1484C121.219 45.0286 121.518 44.8177 121.789 44.5156C122.06 44.2083 122.331 43.7266 122.602 43.0703ZM131 35.4062L131.117 37.8906H130.82C130.763 37.4531 130.685 37.1406 130.586 36.9531C130.424 36.651 130.208 36.4297 129.938 36.2891C129.672 36.1432 129.32 36.0703 128.883 36.0703H127.391V44.1641C127.391 44.8151 127.461 45.2214 127.602 45.3828C127.799 45.6016 128.104 45.7109 128.516 45.7109H128.883V46H124.391V45.7109H124.766C125.214 45.7109 125.531 45.5755 125.719 45.3047C125.833 45.138 125.891 44.7578 125.891 44.1641V36.0703H124.617C124.122 36.0703 123.771 36.1068 123.562 36.1797C123.292 36.2786 123.06 36.4688 122.867 36.75C122.674 37.0312 122.56 37.4115 122.523 37.8906H122.227L122.352 35.4062H131ZM139.148 35.4062H142.844V35.6953H142.641C142.505 35.6953 142.307 35.7552 142.047 35.875C141.786 35.9948 141.549 36.1667 141.336 36.3906C141.122 36.6146 140.859 36.9792 140.547 37.4844L137.992 41.5078V44.1641C137.992 44.8151 138.065 45.2214 138.211 45.3828C138.409 45.6016 138.721 45.7109 139.148 45.7109H139.492V46H134.992V45.7109H135.367C135.815 45.7109 136.133 45.5755 136.32 45.3047C136.435 45.138 136.492 44.7578 136.492 44.1641V41.6562L133.586 37.2188C133.242 36.6979 133.008 36.3724 132.883 36.2422C132.763 36.112 132.51 35.9557 132.125 35.7734C132.021 35.7214 131.87 35.6953 131.672 35.6953V35.4062H136.203V35.6953H135.969C135.724 35.6953 135.497 35.7526 135.289 35.8672C135.086 35.9818 134.984 36.1536 134.984 36.3828C134.984 36.5703 135.143 36.9089 135.461 37.3984L137.672 40.8125L139.75 37.5469C140.062 37.0573 140.219 36.6927 140.219 36.4531C140.219 36.3073 140.18 36.1771 140.102 36.0625C140.029 35.9479 139.922 35.8594 139.781 35.7969C139.641 35.7292 139.43 35.6953 139.148 35.6953V35.4062ZM142.875 35.4062H145.75L152.227 43.3516V37.2422C152.227 36.5911 152.154 36.1849 152.008 36.0234C151.815 35.8047 151.51 35.6953 151.094 35.6953H150.727V35.4062H154.414V35.6953H154.039C153.591 35.6953 153.273 35.8307 153.086 36.1016C152.971 36.2682 152.914 36.6484 152.914 37.2422V46.1719H152.633L145.648 37.6406V44.1641C145.648 44.8151 145.719 45.2214 145.859 45.3828C146.057 45.6016 146.362 45.7109 146.773 45.7109H147.148V46H143.461V45.7109H143.828C144.281 45.7109 144.602 45.5755 144.789 45.3047C144.904 45.138 144.961 44.7578 144.961 44.1641V36.7969C144.654 36.4375 144.419 36.2005 144.258 36.0859C144.102 35.9714 143.87 35.8646 143.562 35.7656C143.411 35.7188 143.182 35.6953 142.875 35.6953V35.4062ZM160.242 35.6953V35.4062H164.781V35.6953H164.398C163.966 35.6953 163.651 35.8229 163.453 36.0781C163.328 36.2448 163.266 36.6458 163.266 37.2812V42.4609C163.266 43.2578 163.177 43.9036 163 44.3984C162.828 44.8932 162.529 45.3255 162.102 45.6953C161.674 46.0599 161.159 46.2422 160.555 46.2422C160.065 46.2422 159.68 46.1224 159.398 45.8828C159.117 45.638 158.977 45.3594 158.977 45.0469C158.977 44.7917 159.042 44.599 159.172 44.4688C159.344 44.3073 159.544 44.2266 159.773 44.2266C159.94 44.2266 160.089 44.2812 160.219 44.3906C160.354 44.5 160.523 44.7917 160.727 45.2656C160.846 45.5469 161 45.6875 161.188 45.6875C161.328 45.6875 161.458 45.6016 161.578 45.4297C161.703 45.2578 161.766 44.9531 161.766 44.5156V37.2812C161.766 36.7448 161.732 36.3906 161.664 36.2188C161.612 36.0885 161.503 35.9766 161.336 35.8828C161.112 35.7578 160.875 35.6953 160.625 35.6953H160.242ZM172.516 35.6953V35.4062H176.266V35.6953H175.867C175.451 35.6953 175.13 35.8698 174.906 36.2188C174.797 36.3802 174.742 36.7552 174.742 37.3438V41.6406C174.742 42.7031 174.635 43.5286 174.422 44.1172C174.214 44.7005 173.799 45.2031 173.18 45.625C172.565 46.0417 171.727 46.25 170.664 46.25C169.508 46.25 168.63 46.0495 168.031 45.6484C167.432 45.2474 167.008 44.7083 166.758 44.0312C166.591 43.5677 166.508 42.6979 166.508 41.4219V37.2812C166.508 36.6302 166.417 36.2031 166.234 36C166.057 35.7969 165.768 35.6953 165.367 35.6953H164.969V35.4062H169.547V35.6953H169.141C168.703 35.6953 168.391 35.8333 168.203 36.1094C168.073 36.2969 168.008 36.6875 168.008 37.2812V41.8984C168.008 42.3099 168.044 42.7812 168.117 43.3125C168.195 43.8438 168.333 44.2578 168.531 44.5547C168.729 44.8516 169.013 45.0964 169.383 45.2891C169.758 45.4818 170.216 45.5781 170.758 45.5781C171.451 45.5781 172.07 45.4271 172.617 45.125C173.164 44.8229 173.536 44.4375 173.734 43.9688C173.938 43.4948 174.039 42.6953 174.039 41.5703V37.2812C174.039 36.6198 173.966 36.2057 173.82 36.0391C173.617 35.8099 173.315 35.6953 172.914 35.6953H172.516ZM185.617 43.0703L185.875 43.125L184.969 46H176.766V45.7109H177.164C177.612 45.7109 177.932 45.5651 178.125 45.2734C178.234 45.1068 178.289 44.7214 178.289 44.1172V37.2812C178.289 36.6198 178.216 36.2057 178.07 36.0391C177.867 35.8099 177.565 35.6953 177.164 35.6953H176.766V35.4062H181.562V35.6953C181 35.6901 180.604 35.7422 180.375 35.8516C180.151 35.9609 179.997 36.099 179.914 36.2656C179.831 36.4323 179.789 36.8307 179.789 37.4609V44.1172C179.789 44.5495 179.831 44.8464 179.914 45.0078C179.977 45.1172 180.073 45.1979 180.203 45.25C180.333 45.3021 180.74 45.3281 181.422 45.3281H182.195C183.008 45.3281 183.578 45.2682 183.906 45.1484C184.234 45.0286 184.534 44.8177 184.805 44.5156C185.076 44.2083 185.346 43.7266 185.617 43.0703ZM186.5 46V45.7109H186.898C187.346 45.7109 187.664 45.5677 187.852 45.2812C187.966 45.1094 188.023 44.724 188.023 44.125V37.2812C188.023 36.6198 187.951 36.2057 187.805 36.0391C187.602 35.8099 187.299 35.6953 186.898 35.6953H186.5V35.4062H190.812C192.396 35.4062 193.599 35.5859 194.422 35.9453C195.25 36.3047 195.914 36.9036 196.414 37.7422C196.919 38.5807 197.172 39.5495 197.172 40.6484C197.172 42.1224 196.724 43.3542 195.828 44.3438C194.823 45.4479 193.292 46 191.234 46H186.5ZM189.523 45.2344C190.185 45.3802 190.74 45.4531 191.188 45.4531C192.396 45.4531 193.398 45.0286 194.195 44.1797C194.992 43.3307 195.391 42.1797 195.391 40.7266C195.391 39.263 194.992 38.1094 194.195 37.2656C193.398 36.4219 192.375 36 191.125 36C190.656 36 190.122 36.0755 189.523 36.2266V45.2344ZM205.414 35.4062H209.109V35.6953H208.906C208.771 35.6953 208.573 35.7552 208.312 35.875C208.052 35.9948 207.815 36.1667 207.602 36.3906C207.388 36.6146 207.125 36.9792 206.812 37.4844L204.258 41.5078V44.1641C204.258 44.8151 204.331 45.2214 204.477 45.3828C204.674 45.6016 204.987 45.7109 205.414 45.7109H205.758V46H201.258V45.7109H201.633C202.081 45.7109 202.398 45.5755 202.586 45.3047C202.701 45.138 202.758 44.7578 202.758 44.1641V41.6562L199.852 37.2188C199.508 36.6979 199.273 36.3724 199.148 36.2422C199.029 36.112 198.776 35.9557 198.391 35.7734C198.286 35.7214 198.135 35.6953 197.938 35.6953V35.4062H202.469V35.6953H202.234C201.99 35.6953 201.763 35.7526 201.555 35.8672C201.352 35.9818 201.25 36.1536 201.25 36.3828C201.25 36.5703 201.409 36.9089 201.727 37.3984L203.938 40.8125L206.016 37.5469C206.328 37.0573 206.484 36.6927 206.484 36.4531C206.484 36.3073 206.445 36.1771 206.367 36.0625C206.294 35.9479 206.188 35.8594 206.047 35.7969C205.906 35.7292 205.695 35.6953 205.414 35.6953V35.4062ZM218.555 35.4062L211.594 45.3594H215.938C216.604 45.3594 217.115 45.2135 217.469 44.9219C217.828 44.6302 218.146 44.0391 218.422 43.1484L218.68 43.1953L218.18 46H209.555V45.7109L216.352 36.0391H212.961C212.398 36.0391 211.99 36.1016 211.734 36.2266C211.484 36.3464 211.292 36.5234 211.156 36.7578C211.026 36.987 210.906 37.4193 210.797 38.0547H210.5L210.719 35.4062H218.555Z" fill="black"/>
<path d="M126.227 47.582L126.363 49.2539H126.227C126.089 48.8372 125.91 48.5234 125.691 48.3125C125.376 48.0078 124.971 47.8555 124.477 47.8555C123.802 47.8555 123.289 48.1224 122.938 48.6562C122.643 49.1068 122.496 49.6432 122.496 50.2656C122.496 50.7708 122.594 51.2318 122.789 51.6484C122.984 52.0651 123.24 52.3711 123.555 52.5664C123.872 52.7591 124.198 52.8555 124.531 52.8555C124.727 52.8555 124.915 52.8307 125.098 52.7812C125.28 52.7318 125.456 52.6589 125.625 52.5625V51.0312C125.625 50.7656 125.604 50.5924 125.562 50.5117C125.523 50.4284 125.461 50.3659 125.375 50.3242C125.292 50.2799 125.143 50.2578 124.93 50.2578V50.1094H126.98V50.2578H126.883C126.68 50.2578 126.54 50.3255 126.465 50.4609C126.413 50.5573 126.387 50.7474 126.387 51.0312V52.6523C126.087 52.8138 125.792 52.9323 125.5 53.0078C125.208 53.0833 124.884 53.1211 124.527 53.1211C123.504 53.1211 122.727 52.793 122.195 52.1367C121.797 51.6445 121.598 51.0768 121.598 50.4336C121.598 49.9674 121.71 49.5208 121.934 49.0938C122.199 48.5859 122.564 48.1953 123.027 47.9219C123.415 47.6953 123.874 47.582 124.402 47.582C124.595 47.582 124.77 47.5977 124.926 47.6289C125.085 47.6602 125.309 47.7292 125.598 47.8359C125.743 47.8906 125.841 47.918 125.891 47.918C125.94 47.918 125.982 47.8958 126.016 47.8516C126.052 47.8047 126.074 47.7148 126.082 47.582H126.227ZM132.504 53H131.09L129.297 50.5234C129.164 50.5286 129.056 50.5312 128.973 50.5312C128.939 50.5312 128.902 50.5312 128.863 50.5312C128.824 50.5286 128.784 50.526 128.742 50.5234V52.0625C128.742 52.3958 128.779 52.6029 128.852 52.6836C128.951 52.7982 129.099 52.8555 129.297 52.8555H129.504V53H127.234V52.8555H127.434C127.658 52.8555 127.818 52.7826 127.914 52.6367C127.969 52.556 127.996 52.3646 127.996 52.0625V48.6406C127.996 48.3073 127.96 48.1003 127.887 48.0195C127.785 47.9049 127.634 47.8477 127.434 47.8477H127.234V47.7031H129.164C129.727 47.7031 130.141 47.7448 130.406 47.8281C130.674 47.9089 130.901 48.0599 131.086 48.2812C131.273 48.5 131.367 48.7617 131.367 49.0664C131.367 49.3919 131.26 49.6745 131.047 49.9141C130.836 50.1536 130.508 50.3229 130.062 50.4219L131.156 51.9414C131.406 52.2904 131.621 52.5221 131.801 52.6367C131.98 52.7513 132.215 52.8242 132.504 52.8555V53ZM128.742 50.2773C128.792 50.2773 128.835 50.2786 128.871 50.2812C128.908 50.2812 128.938 50.2812 128.961 50.2812C129.466 50.2812 129.846 50.1719 130.102 49.9531C130.359 49.7344 130.488 49.4557 130.488 49.1172C130.488 48.7865 130.384 48.5182 130.176 48.3125C129.97 48.1042 129.697 48 129.355 48C129.204 48 129 48.0247 128.742 48.0742V50.2773ZM135.359 47.582C136.047 47.582 136.642 47.8438 137.145 48.3672C137.65 48.888 137.902 49.5391 137.902 50.3203C137.902 51.125 137.648 51.793 137.141 52.3242C136.633 52.8555 136.018 53.1211 135.297 53.1211C134.568 53.1211 133.954 52.862 133.457 52.3438C132.962 51.8255 132.715 51.1549 132.715 50.332C132.715 49.4909 133.001 48.8047 133.574 48.2734C134.072 47.8125 134.667 47.582 135.359 47.582ZM135.285 47.8672C134.811 47.8672 134.431 48.043 134.145 48.3945C133.788 48.832 133.609 49.4727 133.609 50.3164C133.609 51.181 133.794 51.8464 134.164 52.3125C134.448 52.6667 134.823 52.8438 135.289 52.8438C135.786 52.8438 136.197 52.6497 136.52 52.2617C136.845 51.8737 137.008 51.2617 137.008 50.4258C137.008 49.5195 136.829 48.8438 136.473 48.3984C136.186 48.0443 135.79 47.8672 135.285 47.8672ZM142.031 47.8477V47.7031H143.906V47.8477H143.707C143.499 47.8477 143.339 47.9349 143.227 48.1094C143.172 48.1901 143.145 48.3776 143.145 48.6719V50.8203C143.145 51.3516 143.091 51.7643 142.984 52.0586C142.88 52.3503 142.673 52.6016 142.363 52.8125C142.056 53.0208 141.637 53.125 141.105 53.125C140.527 53.125 140.089 53.0247 139.789 52.8242C139.49 52.6237 139.277 52.3542 139.152 52.0156C139.069 51.7839 139.027 51.349 139.027 50.7109V48.6406C139.027 48.3151 138.982 48.1016 138.891 48C138.802 47.8984 138.658 47.8477 138.457 47.8477H138.258V47.7031H140.547V47.8477H140.344C140.125 47.8477 139.969 47.9167 139.875 48.0547C139.81 48.1484 139.777 48.3438 139.777 48.6406V50.9492C139.777 51.1549 139.796 51.3906 139.832 51.6562C139.871 51.9219 139.94 52.1289 140.039 52.2773C140.138 52.4258 140.28 52.5482 140.465 52.6445C140.652 52.7409 140.882 52.7891 141.152 52.7891C141.499 52.7891 141.809 52.7135 142.082 52.5625C142.355 52.4115 142.542 52.2188 142.641 51.9844C142.742 51.7474 142.793 51.3477 142.793 50.7852V48.6406C142.793 48.3099 142.757 48.1029 142.684 48.0195C142.582 47.9049 142.431 47.8477 142.23 47.8477H142.031ZM145.637 50.5195V52.0625C145.637 52.3958 145.673 52.6029 145.746 52.6836C145.845 52.7982 145.995 52.8555 146.195 52.8555H146.398V53H144.129V52.8555H144.328C144.552 52.8555 144.712 52.7826 144.809 52.6367C144.861 52.556 144.887 52.3646 144.887 52.0625V48.6406C144.887 48.3073 144.852 48.1003 144.781 48.0195C144.68 47.9049 144.529 47.8477 144.328 47.8477H144.129V47.7031H146.07C146.544 47.7031 146.918 47.7526 147.191 47.8516C147.465 47.9479 147.695 48.112 147.883 48.3438C148.07 48.5755 148.164 48.8503 148.164 49.168C148.164 49.6003 148.021 49.9518 147.734 50.2227C147.451 50.4935 147.048 50.6289 146.527 50.6289C146.4 50.6289 146.262 50.6198 146.113 50.6016C145.965 50.5833 145.806 50.556 145.637 50.5195ZM145.637 50.2969C145.775 50.3229 145.897 50.3424 146.004 50.3555C146.111 50.3685 146.202 50.375 146.277 50.375C146.548 50.375 146.781 50.2708 146.977 50.0625C147.174 49.8516 147.273 49.5794 147.273 49.2461C147.273 49.0169 147.227 48.8047 147.133 48.6094C147.039 48.4115 146.906 48.2643 146.734 48.168C146.562 48.069 146.367 48.0195 146.148 48.0195C146.016 48.0195 145.845 48.0443 145.637 48.0938V50.2969ZM153.078 47.582C153.766 47.582 154.361 47.8438 154.863 48.3672C155.368 48.888 155.621 49.5391 155.621 50.3203C155.621 51.125 155.367 51.793 154.859 52.3242C154.352 52.8555 153.737 53.1211 153.016 53.1211C152.286 53.1211 151.673 52.862 151.176 52.3438C150.681 51.8255 150.434 51.1549 150.434 50.332C150.434 49.4909 150.72 48.8047 151.293 48.2734C151.79 47.8125 152.385 47.582 153.078 47.582ZM153.004 47.8672C152.53 47.8672 152.15 48.043 151.863 48.3945C151.507 48.832 151.328 49.4727 151.328 50.3164C151.328 51.181 151.513 51.8464 151.883 52.3125C152.167 52.6667 152.542 52.8438 153.008 52.8438C153.505 52.8438 153.915 52.6497 154.238 52.2617C154.564 51.8737 154.727 51.2617 154.727 50.4258C154.727 49.5195 154.548 48.8438 154.191 48.3984C153.905 48.0443 153.509 47.8672 153.004 47.8672ZM157.57 47.9922V50.0742H158.535C158.757 50.0742 158.918 50.026 159.02 49.9297C159.124 49.8307 159.193 49.6367 159.227 49.3477H159.371V51.1406H159.227C159.224 50.9349 159.197 50.7839 159.145 50.6875C159.095 50.5911 159.025 50.5195 158.934 50.4727C158.845 50.4232 158.712 50.3984 158.535 50.3984H157.57V52.0625C157.57 52.3307 157.587 52.5078 157.621 52.5938C157.647 52.6589 157.702 52.7148 157.785 52.7617C157.9 52.8242 158.02 52.8555 158.145 52.8555H158.336V53H156.062V52.8555H156.25C156.469 52.8555 156.628 52.7917 156.727 52.6641C156.789 52.5807 156.82 52.3802 156.82 52.0625V48.6406C156.82 48.3724 156.803 48.1953 156.77 48.1094C156.743 48.0443 156.69 47.9883 156.609 47.9414C156.497 47.8789 156.378 47.8477 156.25 47.8477H156.062V47.7031H160.004L160.055 48.8672H159.918C159.85 48.6198 159.771 48.4388 159.68 48.3242C159.591 48.207 159.48 48.1224 159.348 48.0703C159.217 48.0182 159.014 47.9922 158.738 47.9922H157.57ZM167.203 47.582L167.324 49.3828H167.203C167.042 48.8438 166.811 48.4557 166.512 48.2188C166.212 47.9818 165.853 47.8633 165.434 47.8633C165.082 47.8633 164.764 47.9531 164.48 48.1328C164.197 48.3099 163.973 48.5938 163.809 48.9844C163.647 49.375 163.566 49.8607 163.566 50.4414C163.566 50.9206 163.643 51.3359 163.797 51.6875C163.951 52.0391 164.181 52.3086 164.488 52.4961C164.798 52.6836 165.151 52.7773 165.547 52.7773C165.891 52.7773 166.194 52.7044 166.457 52.5586C166.72 52.4102 167.009 52.1172 167.324 51.6797L167.445 51.7578C167.18 52.2292 166.87 52.5742 166.516 52.793C166.161 53.0117 165.741 53.1211 165.254 53.1211C164.376 53.1211 163.697 52.7956 163.215 52.1445C162.855 51.6602 162.676 51.0898 162.676 50.4336C162.676 49.9049 162.794 49.4193 163.031 48.9766C163.268 48.5339 163.594 48.1914 164.008 47.9492C164.424 47.7044 164.879 47.582 165.371 47.582C165.754 47.582 166.132 47.6758 166.504 47.8633C166.613 47.9206 166.691 47.9492 166.738 47.9492C166.809 47.9492 166.87 47.9245 166.922 47.875C166.99 47.8047 167.038 47.707 167.066 47.582H167.203ZM170.648 47.582C171.336 47.582 171.931 47.8438 172.434 48.3672C172.939 48.888 173.191 49.5391 173.191 50.3203C173.191 51.125 172.938 51.793 172.43 52.3242C171.922 52.8555 171.307 53.1211 170.586 53.1211C169.857 53.1211 169.243 52.862 168.746 52.3438C168.251 51.8255 168.004 51.1549 168.004 50.332C168.004 49.4909 168.29 48.8047 168.863 48.2734C169.361 47.8125 169.956 47.582 170.648 47.582ZM170.574 47.8672C170.1 47.8672 169.72 48.043 169.434 48.3945C169.077 48.832 168.898 49.4727 168.898 50.3164C168.898 51.181 169.083 51.8464 169.453 52.3125C169.737 52.6667 170.112 52.8438 170.578 52.8438C171.076 52.8438 171.486 52.6497 171.809 52.2617C172.134 51.8737 172.297 51.2617 172.297 50.4258C172.297 49.5195 172.118 48.8438 171.762 48.3984C171.475 48.0443 171.079 47.8672 170.574 47.8672ZM176.777 53L174.73 48.543V52.082C174.73 52.4076 174.766 52.6107 174.836 52.6914C174.932 52.8008 175.085 52.8555 175.293 52.8555H175.48V53H173.637V52.8555H173.824C174.048 52.8555 174.207 52.7878 174.301 52.6523C174.358 52.569 174.387 52.3789 174.387 52.082V48.6211C174.387 48.3867 174.361 48.2174 174.309 48.1133C174.272 48.0378 174.204 47.9753 174.105 47.9258C174.009 47.8737 173.853 47.8477 173.637 47.8477V47.7031H175.137L177.059 51.8477L178.949 47.7031H180.449V47.8477H180.266C180.039 47.8477 179.879 47.9154 179.785 48.0508C179.728 48.1341 179.699 48.3242 179.699 48.6211V52.082C179.699 52.4076 179.736 52.6107 179.809 52.6914C179.905 52.8008 180.057 52.8555 180.266 52.8555H180.449V53H178.199V52.8555H178.387C178.613 52.8555 178.772 52.7878 178.863 52.6523C178.921 52.569 178.949 52.3789 178.949 52.082V48.543L176.906 53H176.777ZM182.262 50.5195V52.0625C182.262 52.3958 182.298 52.6029 182.371 52.6836C182.47 52.7982 182.62 52.8555 182.82 52.8555H183.023V53H180.754V52.8555H180.953C181.177 52.8555 181.337 52.7826 181.434 52.6367C181.486 52.556 181.512 52.3646 181.512 52.0625V48.6406C181.512 48.3073 181.477 48.1003 181.406 48.0195C181.305 47.9049 181.154 47.8477 180.953 47.8477H180.754V47.7031H182.695C183.169 47.7031 183.543 47.7526 183.816 47.8516C184.09 47.9479 184.32 48.112 184.508 48.3438C184.695 48.5755 184.789 48.8503 184.789 49.168C184.789 49.6003 184.646 49.9518 184.359 50.2227C184.076 50.4935 183.673 50.6289 183.152 50.6289C183.025 50.6289 182.887 50.6198 182.738 50.6016C182.59 50.5833 182.431 50.556 182.262 50.5195ZM182.262 50.2969C182.4 50.3229 182.522 50.3424 182.629 50.3555C182.736 50.3685 182.827 50.375 182.902 50.375C183.173 50.375 183.406 50.2708 183.602 50.0625C183.799 49.8516 183.898 49.5794 183.898 49.2461C183.898 49.0169 183.852 48.8047 183.758 48.6094C183.664 48.4115 183.531 48.2643 183.359 48.168C183.188 48.069 182.992 48.0195 182.773 48.0195C182.641 48.0195 182.47 48.0443 182.262 48.0938V50.2969ZM188 51.2266H185.949L185.59 52.0625C185.501 52.2682 185.457 52.4219 185.457 52.5234C185.457 52.6042 185.495 52.6758 185.57 52.7383C185.648 52.7982 185.815 52.8372 186.07 52.8555V53H184.402V52.8555C184.624 52.8164 184.767 52.7656 184.832 52.7031C184.965 52.5781 185.112 52.3242 185.273 51.9414L187.137 47.582H187.273L189.117 51.9883C189.266 52.3424 189.4 52.5729 189.52 52.6797C189.642 52.7839 189.811 52.8424 190.027 52.8555V53H187.938V52.8555C188.148 52.8451 188.29 52.8099 188.363 52.75C188.439 52.6901 188.477 52.6172 188.477 52.5312C188.477 52.4167 188.424 52.2357 188.32 51.9883L188 51.2266ZM187.891 50.9375L186.992 48.7969L186.07 50.9375H187.891ZM190.016 47.7031H191.453L194.691 51.6758V48.6211C194.691 48.2956 194.655 48.0924 194.582 48.0117C194.486 47.9023 194.333 47.8477 194.125 47.8477H193.941V47.7031H195.785V47.8477H195.598C195.374 47.8477 195.215 47.9154 195.121 48.0508C195.064 48.1341 195.035 48.3242 195.035 48.6211V53.0859H194.895L191.402 48.8203V52.082C191.402 52.4076 191.438 52.6107 191.508 52.6914C191.607 52.8008 191.759 52.8555 191.965 52.8555H192.152V53H190.309V52.8555H190.492C190.719 52.8555 190.879 52.7878 190.973 52.6523C191.03 52.569 191.059 52.3789 191.059 52.082V48.3984C190.905 48.2188 190.788 48.1003 190.707 48.043C190.629 47.9857 190.513 47.9323 190.359 47.8828C190.284 47.8594 190.169 47.8477 190.016 47.8477V47.7031ZM199.715 47.7031H201.562V47.8477H201.461C201.393 47.8477 201.294 47.8776 201.164 47.9375C201.034 47.9974 200.915 48.0833 200.809 48.1953C200.702 48.3073 200.57 48.4896 200.414 48.7422L199.137 50.7539V52.082C199.137 52.4076 199.173 52.6107 199.246 52.6914C199.345 52.8008 199.501 52.8555 199.715 52.8555H199.887V53H197.637V52.8555H197.824C198.048 52.8555 198.207 52.7878 198.301 52.6523C198.358 52.569 198.387 52.3789 198.387 52.082V50.8281L196.934 48.6094C196.762 48.349 196.645 48.1862 196.582 48.1211C196.522 48.056 196.396 47.9779 196.203 47.8867C196.151 47.8607 196.076 47.8477 195.977 47.8477V47.7031H198.242V47.8477H198.125C198.003 47.8477 197.889 47.8763 197.785 47.9336C197.684 47.9909 197.633 48.0768 197.633 48.1914C197.633 48.2852 197.712 48.4544 197.871 48.6992L198.977 50.4062L200.016 48.7734C200.172 48.5286 200.25 48.3464 200.25 48.2266C200.25 48.1536 200.23 48.0885 200.191 48.0312C200.155 47.974 200.102 47.9297 200.031 47.8984C199.961 47.8646 199.855 47.8477 199.715 47.8477V47.7031Z" fill="black"/>
<path d="M0 33H99.5" stroke="#FDCB4B" stroke-width="5"/>
<path d="M233.5 33H333" stroke="#FDCB4B" stroke-width="5"/>
</g>
<defs>
<clipPath id="clip0_4_3">
<rect width="333" height="66" fill="white"/>
</clipPath>
</defs>
</svg>
