<svg width="206" height="67" viewBox="0 0 206 67" fill="none" xmlns="http://www.w3.org/2000/svg">
<g clip-path="url(#clip0_8_3)">
<path d="M53.0767 12.7515L54.0166 24.2456H53.0767C52.1278 21.381 50.9014 19.2236 49.3975 17.7734C47.2311 15.6787 44.4471 14.6313 41.0454 14.6313C36.4084 14.6313 32.8813 16.4665 30.4644 20.1367C28.4412 23.234 27.4297 26.9222 27.4297 31.2012C27.4297 34.6745 28.1011 37.8434 29.4438 40.708C30.7866 43.5726 32.5412 45.6763 34.7075 47.019C36.8918 48.3439 39.1297 49.0063 41.4214 49.0063C42.7642 49.0063 44.0622 48.8363 45.3154 48.4961C46.5687 48.1559 47.7772 47.6546 48.9409 46.9922V36.4648C48.9409 34.6387 48.7977 33.4481 48.5112 32.8931C48.2427 32.3201 47.813 31.8905 47.2222 31.604C46.6493 31.2996 45.6287 31.1475 44.1606 31.1475V30.127H58.2598V31.1475H57.5884C56.1919 31.1475 55.234 31.613 54.7148 32.5439C54.3568 33.2064 54.1777 34.5133 54.1777 36.4648V47.6099C52.1188 48.7199 50.0868 49.5345 48.0815 50.0537C46.0763 50.5729 43.8473 50.8325 41.3945 50.8325C34.3584 50.8325 29.0142 48.5767 25.3618 44.0649C22.6226 40.6812 21.2529 36.7782 21.2529 32.356C21.2529 29.1512 22.0228 26.0807 23.5625 23.1445C25.3887 19.6533 27.8952 16.9678 31.082 15.0879C33.7497 13.5303 36.9007 12.7515 40.5352 12.7515C41.86 12.7515 43.0596 12.8589 44.1338 13.0737C45.2259 13.2886 46.7656 13.763 48.7529 14.4971C49.7555 14.873 50.4269 15.061 50.7671 15.061C51.1073 15.061 51.3937 14.9089 51.6265 14.6045C51.8771 14.2822 52.0293 13.6646 52.083 12.7515H53.0767ZM84.2827 12.7515V25.3467H83.2891C82.9668 22.9297 82.3849 21.005 81.5435 19.5728C80.7199 18.1405 79.5382 17.0036 77.9985 16.1621C76.4588 15.3206 74.8654 14.8999 73.2183 14.8999C71.3563 14.8999 69.8166 15.4728 68.5991 16.6187C67.3817 17.7466 66.7729 19.0356 66.7729 20.4858C66.7729 21.5959 67.1579 22.6074 67.9277 23.5205C69.0378 24.8633 71.6785 26.6536 75.8501 28.8916C79.2518 30.7178 81.5703 32.1232 82.8057 33.1079C84.0589 34.0747 85.0168 35.2205 85.6792 36.5454C86.3595 37.8703 86.6997 39.2578 86.6997 40.708C86.6997 43.4652 85.6255 45.8464 83.4771 47.8516C81.3465 49.8389 78.5983 50.8325 75.2324 50.8325C74.1761 50.8325 73.1825 50.752 72.2515 50.5908C71.6965 50.5013 70.5417 50.179 68.7871 49.624C67.0505 49.0511 65.9494 48.7646 65.4839 48.7646C65.0363 48.7646 64.6782 48.8989 64.4097 49.1675C64.159 49.436 63.971 49.991 63.8457 50.8325H62.8521V38.3447H63.8457C64.3112 40.9587 64.9378 42.9191 65.7256 44.2261C66.5133 45.5151 67.7129 46.5894 69.3242 47.4487C70.9535 48.3081 72.7349 48.7378 74.6685 48.7378C76.9064 48.7378 78.6699 48.147 79.959 46.9653C81.266 45.7837 81.9194 44.3872 81.9194 42.7759C81.9194 41.8807 81.6688 40.9766 81.1675 40.0635C80.6841 39.1504 79.9232 38.3 78.8848 37.5122C78.1865 36.9751 76.2798 35.8382 73.1646 34.1016C70.0493 32.347 67.8293 30.9505 66.5044 29.9121C65.1974 28.8737 64.2038 27.7279 63.5234 26.4746C62.8431 25.2214 62.5029 23.8428 62.5029 22.3389C62.5029 19.7249 63.5055 17.478 65.5107 15.5981C67.516 13.7004 70.0672 12.7515 73.1646 12.7515C75.0981 12.7515 77.1481 13.2259 79.3145 14.1748C80.3171 14.6224 81.0243 14.8462 81.436 14.8462C81.9015 14.8462 82.2775 14.7119 82.564 14.4434C82.8683 14.1569 83.11 13.5929 83.2891 12.7515H84.2827Z" fill="white"/>
<path d="M98.3164 29.9473C99.3906 28.873 100.024 28.2554 100.218 28.0942C100.701 27.686 101.222 27.3691 101.781 27.1436C102.339 26.918 102.893 26.8052 103.44 26.8052C104.364 26.8052 105.159 27.0737 105.825 27.6108C106.491 28.1479 106.937 28.9268 107.163 29.9473C108.269 28.6582 109.204 27.8149 109.966 27.4175C110.729 27.0093 111.513 26.8052 112.319 26.8052C113.103 26.8052 113.796 27.0093 114.397 27.4175C115.01 27.8149 115.493 28.4702 115.848 29.3833C116.084 30.0063 116.202 30.9839 116.202 32.3159V38.6646C116.202 39.5884 116.272 40.2222 116.412 40.5659C116.519 40.8022 116.718 41.0063 117.008 41.1782C117.298 41.3394 117.771 41.4199 118.426 41.4199V42H111.143V41.4199H111.449C112.083 41.4199 112.577 41.2964 112.931 41.0493C113.178 40.8774 113.355 40.6035 113.463 40.2275C113.506 40.0449 113.527 39.5239 113.527 38.6646V32.3159C113.527 31.1128 113.382 30.2642 113.092 29.77C112.673 29.0825 112.002 28.7388 111.078 28.7388C110.509 28.7388 109.934 28.8838 109.354 29.1738C108.785 29.4531 108.092 29.9795 107.275 30.7529L107.243 30.9302L107.275 31.623V38.6646C107.275 39.6743 107.329 40.3027 107.437 40.5498C107.555 40.7969 107.77 41.0063 108.081 41.1782C108.393 41.3394 108.924 41.4199 109.676 41.4199V42H102.216V41.4199C103.032 41.4199 103.591 41.3232 103.892 41.1299C104.203 40.9365 104.418 40.6465 104.536 40.2598C104.59 40.0771 104.617 39.5454 104.617 38.6646V32.3159C104.617 31.1128 104.439 30.248 104.085 29.7217C103.612 29.0342 102.952 28.6904 102.103 28.6904C101.523 28.6904 100.948 28.8462 100.379 29.1577C99.4873 29.6304 98.7998 30.1621 98.3164 30.7529V38.6646C98.3164 39.6313 98.3809 40.2598 98.5098 40.5498C98.6494 40.8398 98.8481 41.0601 99.106 41.2104C99.3745 41.3501 99.9116 41.4199 100.717 41.4199V42H93.418V41.4199C94.0947 41.4199 94.5674 41.3501 94.8359 41.2104C95.1045 41.0601 95.3086 40.8291 95.4482 40.5176C95.5879 40.1953 95.6577 39.5776 95.6577 38.6646V33.0249C95.6577 31.4028 95.6094 30.3555 95.5127 29.8828C95.4375 29.5283 95.3193 29.2866 95.1582 29.1577C94.9971 29.0181 94.7769 28.9482 94.4976 28.9482C94.1968 28.9482 93.8369 29.0288 93.418 29.1899L93.1763 28.6099L97.6235 26.8052H98.3164V29.9473ZM122.1 32.7993C122.089 34.9907 122.621 36.7095 123.695 37.9556C124.769 39.2017 126.031 39.8247 127.481 39.8247C128.448 39.8247 129.286 39.5615 129.995 39.0352C130.715 38.498 131.316 37.585 131.8 36.2959L132.299 36.6182C132.074 38.0898 131.418 39.4326 130.333 40.6465C129.249 41.8496 127.89 42.4512 126.257 42.4512C124.484 42.4512 122.964 41.7637 121.697 40.3887C120.44 39.0029 119.812 37.1445 119.812 34.8135C119.812 32.2891 120.456 30.3232 121.745 28.916C123.045 27.498 124.672 26.7891 126.627 26.7891C128.282 26.7891 129.641 27.3369 130.704 28.4326C131.768 29.5176 132.299 30.9731 132.299 32.7993H122.1ZM122.1 31.8647H128.932C128.878 30.9194 128.765 30.2534 128.593 29.8667C128.325 29.2651 127.922 28.7925 127.385 28.4487C126.858 28.105 126.305 27.9331 125.725 27.9331C124.833 27.9331 124.033 28.2822 123.324 28.9805C122.626 29.668 122.218 30.6294 122.1 31.8647ZM138.648 19.0869V33.7661L142.402 30.3501C143.197 29.6196 143.659 29.1577 143.788 28.9644C143.874 28.8354 143.917 28.7065 143.917 28.5776C143.917 28.3628 143.826 28.1802 143.643 28.0298C143.471 27.8687 143.181 27.7773 142.773 27.7559V27.2402H149.186V27.7559C148.305 27.7773 147.569 27.9116 146.979 28.1587C146.398 28.4058 145.759 28.8462 145.061 29.48L141.274 32.9766L145.061 37.7622C146.114 39.0835 146.823 39.9214 147.188 40.2759C147.704 40.7808 148.155 41.1084 148.542 41.2588C148.81 41.3662 149.277 41.4199 149.943 41.4199V42H142.773V41.4199C143.181 41.4092 143.455 41.3501 143.595 41.2427C143.745 41.1245 143.82 40.9634 143.82 40.7593C143.82 40.5122 143.605 40.1147 143.176 39.5669L138.648 33.7822V38.6807C138.648 39.6367 138.712 40.2651 138.841 40.5659C138.981 40.8667 139.174 41.0815 139.421 41.2104C139.668 41.3394 140.206 41.4092 141.033 41.4199V42H133.524V41.4199C134.276 41.4199 134.84 41.3286 135.216 41.146C135.441 41.0278 135.613 40.8452 135.731 40.5981C135.893 40.2437 135.973 39.6313 135.973 38.7612V25.3228C135.973 23.6147 135.936 22.5728 135.86 22.1968C135.785 21.8101 135.662 21.5469 135.49 21.4072C135.318 21.2568 135.092 21.1816 134.813 21.1816C134.587 21.1816 134.249 21.2729 133.798 21.4556L133.524 20.8916L137.907 19.0869H138.648ZM155.067 22.3901V27.2402H158.516V28.3682H155.067V37.9395C155.067 38.8955 155.202 39.54 155.47 39.873C155.75 40.2061 156.104 40.3726 156.534 40.3726C156.888 40.3726 157.232 40.2651 157.565 40.0503C157.898 39.8247 158.156 39.4971 158.338 39.0674H158.967C158.591 40.1201 158.059 40.915 157.372 41.4521C156.684 41.9785 155.975 42.2417 155.245 42.2417C154.75 42.2417 154.267 42.1074 153.794 41.8389C153.322 41.5596 152.973 41.1675 152.747 40.6626C152.521 40.147 152.409 39.3574 152.409 38.2939V28.3682H150.072V27.8364C150.663 27.6001 151.265 27.2026 151.877 26.644C152.5 26.0747 153.053 25.4033 153.537 24.6299C153.784 24.2217 154.127 23.4751 154.568 22.3901H155.067ZM162.447 32.7993C162.437 34.9907 162.968 36.7095 164.042 37.9556C165.117 39.2017 166.379 39.8247 167.829 39.8247C168.796 39.8247 169.634 39.5615 170.343 39.0352C171.062 38.498 171.664 37.585 172.147 36.2959L172.647 36.6182C172.421 38.0898 171.766 39.4326 170.681 40.6465C169.596 41.8496 168.237 42.4512 166.604 42.4512C164.832 42.4512 163.312 41.7637 162.044 40.3887C160.788 39.0029 160.159 37.1445 160.159 34.8135C160.159 32.2891 160.804 30.3232 162.093 28.916C163.393 27.498 165.02 26.7891 166.975 26.7891C168.629 26.7891 169.988 27.3369 171.052 28.4326C172.115 29.5176 172.647 30.9731 172.647 32.7993H162.447ZM162.447 31.8647H169.279C169.226 30.9194 169.113 30.2534 168.941 29.8667C168.672 29.2651 168.27 28.7925 167.732 28.4487C167.206 28.105 166.653 27.9331 166.073 27.9331C165.181 27.9331 164.381 28.2822 163.672 28.9805C162.974 29.668 162.565 30.6294 162.447 31.8647ZM173.565 28.7065L178.109 26.8696H178.722V30.3179C179.484 29.0181 180.247 28.1104 181.01 27.5947C181.783 27.0684 182.594 26.8052 183.443 26.8052C184.925 26.8052 186.161 27.3853 187.149 28.5454C188.363 29.9634 188.97 31.811 188.97 34.0884C188.97 36.6343 188.239 38.7397 186.778 40.4048C185.575 41.769 184.061 42.4512 182.234 42.4512C181.439 42.4512 180.752 42.3384 180.172 42.1128C179.742 41.9517 179.259 41.6294 178.722 41.146V45.6416C178.722 46.6514 178.781 47.2905 178.899 47.5591C179.028 47.8384 179.243 48.0586 179.543 48.2197C179.855 48.3809 180.414 48.4614 181.219 48.4614V49.0576H173.485V48.4614H173.888C174.479 48.4722 174.983 48.3594 175.402 48.123C175.606 48.0049 175.762 47.8115 175.87 47.543C175.988 47.2852 176.047 46.6191 176.047 45.5449V31.5908C176.047 30.6348 176.004 30.0278 175.918 29.77C175.832 29.5122 175.692 29.3188 175.499 29.1899C175.316 29.061 175.064 28.9966 174.742 28.9966C174.484 28.9966 174.156 29.0718 173.759 29.2222L173.565 28.7065ZM178.722 31.2686V36.7793C178.722 37.9717 178.77 38.7559 178.867 39.1318C179.017 39.7549 179.382 40.3027 179.962 40.7754C180.553 41.248 181.294 41.4844 182.186 41.4844C183.26 41.4844 184.13 41.0654 184.796 40.2275C185.667 39.1318 186.102 37.5903 186.102 35.603C186.102 33.3472 185.607 31.6123 184.619 30.3984C183.932 29.5605 183.115 29.1416 182.17 29.1416C181.654 29.1416 181.144 29.2705 180.639 29.5283C180.252 29.7217 179.613 30.3018 178.722 31.2686Z" fill="white"/>
</g>
<defs>
<clipPath id="clip0_8_3">
<rect width="206" height="67" fill="white"/>
</clipPath>
</defs>
</svg>
