<?xml version="1.0" encoding="UTF-8"?> <svg xmlns="http://www.w3.org/2000/svg" width="151" height="42" fill="none"> <path d="M74.999 20.069c0 5-3.698 8.08-9.667 8.08h-5.128v6.553h-4.216V11.99h9.344c5.97 0 9.667 3.051 9.667 8.08Zm-4.25 0c0-2.857-1.914-4.51-5.612-4.51h-4.933v9.02h4.933c3.698 0 5.625-1.654 5.625-4.51h-.012ZM83.758 17.444h-4.216v17.258h4.216V17.444ZM104.526 34.702l-6.164-8.63-6.103 8.63h-4.8l8.436-11.582-7.984-11.13h4.771l5.804 8.079 5.741-8.08h4.56l-7.93 10.97 8.536 11.743h-4.867ZM129.316 31.166v3.536h-17.038V11.99h16.582v3.536h-12.362v5.908h10.965v3.457h-10.965v6.276h12.818ZM134.344 11.99h4.216v19.143h11.876v3.57h-16.092V11.988Z" fill="#fff"></path> <path d="M83.758 11.99h-4.216v4.124h4.216v-4.125Z" fill="#BE1E2D"></path> <path d="M10.765 17.661H6.943L.289 29.471l6.807 11.745 3.913-.005-6.873-11.777 6.629-11.773ZM36.868 12.537 29.982.872 16.41.847l-1.907 3.382 2.4-.004h11.19l6.905 11.711 1.87-3.4ZM44.831 26.038 37.826 37.87H24.212l1.977 3.337 13.544.009 7.047-11.873-1.949-3.304Z" fill="#fff"></path> <path d="M18.53 12.454a5.063 5.063 0 0 1-.071-.829c0-.866.21-1.72.61-2.487h-7.322l-1.882 3.316h8.664ZM28.52 14.464a5.447 5.447 0 0 1-2.574 2.201l4.44 7.528 1.87-3.399-3.736-6.33ZM23.884 7.748a3.888 3.888 0 1 0 3.889 3.876 3.925 3.925 0 0 0-3.889-3.876Zm0 5.39a1.504 1.504 0 1 1 1.505-1.514 1.517 1.517 0 0 1-1.505 1.513ZM38.507 27.104 42 21.233 40.02 17.88l-4.08 6.931a5.973 5.973 0 0 1 2.567 2.293ZM27.433 30.225c.002-.224.015-.448.042-.671h-7.943l1.982 3.337h6.55a5.943 5.943 0 0 1-.63-2.666ZM33.415 26.337a3.889 3.889 0 1 0 3.889 3.888 3.926 3.926 0 0 0-3.889-3.888Zm0 5.389a1.504 1.504 0 1 1 1.5-1.5 1.513 1.513 0 0 1-1.5 1.5ZM16.109 25.102l4.145-7.387h-3.83l-3.54 6.313a5.39 5.39 0 0 1 3.225 1.074ZM16.204 33.754a5.414 5.414 0 0 1-3.225 1.144l3.66 6.318h3.926l-4.36-7.462ZM12.875 25.574a3.888 3.888 0 1 0 3.888 3.876 3.926 3.926 0 0 0-3.888-3.876Zm0 5.39a1.506 1.506 0 1 1 1.509-1.514 1.517 1.517 0 0 1-1.51 1.518v-.005Z" fill="#BE1E2D"></path> </svg> 