<svg width="155" height="62" viewBox="0 0 155 62" fill="none" xmlns="http://www.w3.org/2000/svg">
<path d="M39.4222 11.3394V15.8812C39.4222 19.1843 39.4222 20.9649 39.9639 21.4294C40.4024 21.8165 41.0731 21.9971 43.0852 21.9971C44.4524 21.9971 45.4584 21.9713 46.1033 21.2746C46.4129 20.9391 46.7225 20.2165 46.774 19.7262C46.7998 19.494 46.8514 19.3391 47.0578 19.3391C47.2384 19.3391 47.2642 19.4682 47.2642 19.7778C47.2642 20.0617 47.0836 21.9971 46.8772 22.7455C46.7225 23.3132 46.5935 23.4423 45.2521 23.4423C43.3948 23.4423 42.0534 23.3907 40.8926 23.3648C39.7317 23.3132 38.8031 23.2874 37.7454 23.2874C37.4617 23.2874 36.8942 23.2874 36.2751 23.3132C35.6818 23.3132 35.0111 23.3648 34.4952 23.3648C34.1598 23.3648 33.9792 23.2874 33.9792 23.1068C33.9792 22.9778 34.0824 22.9003 34.392 22.9003C34.7789 22.9003 35.0885 22.8487 35.3206 22.7971C35.8365 22.6939 35.9655 22.1262 36.0687 21.3778C36.1977 20.294 36.1977 18.2553 36.1977 15.8812V11.3394C36.1977 7.41689 36.1977 6.69433 36.1461 5.86854C36.0945 4.99114 35.8881 4.57825 35.0369 4.39761C34.8305 4.346 34.5209 4.32019 34.1856 4.32019C33.9018 4.32019 33.7471 4.26858 33.7471 4.08794C33.7471 3.9073 33.9276 3.85569 34.3146 3.85569C35.527 3.85569 37.1521 3.93311 37.8486 3.93311C38.4677 3.93311 40.3508 3.85569 41.3569 3.85569C41.718 3.85569 41.8986 3.9073 41.8986 4.08794C41.8986 4.26858 41.7438 4.32019 41.4343 4.32019C41.1505 4.32019 40.7378 4.346 40.4282 4.39761C39.7317 4.52664 39.5254 4.96534 39.4738 5.86854C39.4222 6.69433 39.4222 7.41689 39.4222 11.3394Z" fill="black"/>
<path d="M54.0128 15.8812V5.30081L50.1692 5.40404C48.6731 5.45565 48.054 5.58468 47.667 6.1524C47.4091 6.53949 47.2801 6.84916 47.2285 7.05561C47.1769 7.26205 47.0995 7.36527 46.9447 7.36527C46.7642 7.36527 46.7126 7.23625 46.7126 6.95238C46.7126 6.53949 47.2027 4.19117 47.2543 3.98472C47.3317 3.64924 47.4091 3.49441 47.5638 3.49441C47.7702 3.49441 48.0282 3.75247 48.6731 3.80408C49.4212 3.8815 50.4014 3.93311 51.2527 3.93311H61.4679C62.2933 3.93311 62.8609 3.85569 63.2478 3.80408C63.6347 3.72666 63.8411 3.67505 63.9443 3.67505C64.1249 3.67505 64.1507 3.82989 64.1507 4.21697C64.1507 4.75889 64.0733 6.53949 64.0733 7.21044C64.0475 7.4685 63.9959 7.62333 63.8411 7.62333C63.6347 7.62333 63.5831 7.4943 63.5574 7.10722L63.5316 6.82335C63.48 6.1524 62.7835 5.42984 60.4876 5.37823L57.2373 5.30081V15.8812C57.2373 18.2553 57.2373 20.294 57.3663 21.4036C57.4437 22.1262 57.5985 22.6939 58.3724 22.7971C58.7335 22.8487 59.301 22.9003 59.688 22.9003C59.9717 22.9003 60.1007 22.9778 60.1007 23.1068C60.1007 23.2874 59.8943 23.3648 59.6106 23.3648C57.908 23.3648 56.2829 23.2874 55.5606 23.2874C54.9673 23.2874 53.3421 23.3648 52.3103 23.3648C51.975 23.3648 51.7944 23.2874 51.7944 23.1068C51.7944 22.9778 51.8976 22.9003 52.2071 22.9003C52.5941 22.9003 52.9036 22.8487 53.1358 22.7971C53.6517 22.6939 53.8065 22.1262 53.8839 21.3778C54.0128 20.294 54.0128 18.2553 54.0128 15.8812Z" fill="black"/>
<path d="M71.9112 18.7972V16.6812C71.9112 15.2876 71.6533 14.7199 71.3179 13.9715C71.1373 13.5587 67.6807 7.88139 66.7778 6.53949C66.1329 5.58468 65.488 4.93953 64.9979 4.65567C64.6625 4.47503 64.224 4.32019 63.9145 4.32019C63.7081 4.32019 63.5275 4.26858 63.5275 4.08794C63.5275 3.93311 63.7081 3.85569 64.0176 3.85569C64.482 3.85569 66.4167 3.93311 67.2679 3.93311C67.8097 3.93311 68.8673 3.85569 70.0281 3.85569C70.2861 3.85569 70.4151 3.93311 70.4151 4.08794C70.4151 4.24278 70.2345 4.26858 69.8475 4.37181C69.6154 4.42342 69.4864 4.62986 69.4864 4.83631C69.4864 5.04276 69.6154 5.35242 69.7959 5.7137C70.1571 6.48788 73.7685 12.7071 74.1813 13.4296C74.4392 12.8103 77.6895 7.13302 78.0507 6.33304C78.3086 5.76532 78.4118 5.32662 78.4118 4.99114C78.4118 4.73309 78.3086 4.44922 77.8701 4.346C77.6379 4.29439 77.4058 4.24278 77.4058 4.08794C77.4058 3.9073 77.5347 3.85569 77.8443 3.85569C78.6956 3.85569 79.521 3.93311 80.2691 3.93311C80.8366 3.93311 82.5392 3.85569 83.0293 3.85569C83.313 3.85569 83.4936 3.9073 83.4936 4.06214C83.4936 4.24278 83.2872 4.32019 83.0035 4.32019C82.7455 4.32019 82.2554 4.42342 81.8685 4.62986C81.3268 4.88792 81.043 5.19759 80.4755 5.89435C79.6242 6.92658 76.0128 12.9909 75.5485 14.1006C75.1615 15.0296 75.1615 15.8296 75.1615 16.6812V18.7972C75.1615 19.2101 75.1615 20.294 75.2389 21.3778C75.2905 22.1262 75.5227 22.6939 76.2965 22.7971C76.6577 22.8487 77.2252 22.9003 77.5863 22.9003C77.8701 22.9003 77.9991 22.9778 77.9991 23.1068C77.9991 23.2874 77.7927 23.3648 77.4574 23.3648C75.8322 23.3648 74.2071 23.2874 73.5106 23.2874C72.8657 23.2874 71.2405 23.3648 70.2861 23.3648C69.9249 23.3648 69.7186 23.3132 69.7186 23.1068C69.7186 22.9778 69.8475 22.9003 70.1313 22.9003C70.4924 22.9003 70.802 22.8487 71.0342 22.7971C71.5501 22.6939 71.7822 22.1262 71.8338 21.3778C71.9112 20.294 71.9112 19.2101 71.9112 18.7972Z" fill="black"/>
<path d="M87.4642 9.01684L87.7479 19.8553C87.7995 21.8681 88.1349 22.5391 88.6508 22.7197C89.0893 22.8745 89.5794 22.9003 89.9922 22.9003C90.2759 22.9003 90.4307 22.952 90.4307 23.1068C90.4307 23.3132 90.1986 23.3648 89.8374 23.3648C88.1607 23.3648 87.1288 23.2874 86.6387 23.2874C86.4065 23.2874 85.1941 23.3648 83.8527 23.3648C83.5174 23.3648 83.2852 23.339 83.2852 23.1068C83.2852 22.952 83.44 22.9003 83.698 22.9003C84.0333 22.9003 84.4976 22.8745 84.8588 22.7713C85.5295 22.5649 85.6327 21.8165 85.6585 19.5714L85.8906 4.29439C85.8906 3.77827 85.968 3.41699 86.226 3.41699C86.5097 3.41699 86.7419 3.75247 87.1804 4.21697C87.49 4.55245 91.411 8.75879 95.1772 12.5006C96.9313 14.2554 100.414 17.9714 100.852 18.3843H100.981L100.723 6.79755C100.698 5.2234 100.465 4.73309 99.8463 4.47503C99.4593 4.32019 98.8402 4.32019 98.4791 4.32019C98.1695 4.32019 98.0663 4.24278 98.0663 4.08794C98.0663 3.8815 98.3501 3.85569 98.737 3.85569C100.078 3.85569 101.317 3.93311 101.858 3.93311C102.142 3.93311 103.122 3.85569 104.386 3.85569C104.722 3.85569 104.98 3.8815 104.98 4.08794C104.98 4.24278 104.825 4.32019 104.515 4.32019C104.257 4.32019 104.051 4.32019 103.741 4.39761C103.019 4.60406 102.813 5.14598 102.787 6.5911L102.503 22.8745C102.503 23.4423 102.4 23.6745 102.168 23.6745C101.884 23.6745 101.575 23.3907 101.291 23.1068C99.6657 21.5584 96.3638 18.1779 93.681 15.5199C90.8692 12.7329 88.0059 9.50715 87.5416 9.01684H87.4642Z" fill="black"/>
<path d="M60.5185 47.0245V43.1961C60.5185 39.2104 60.5185 38.4762 60.4661 37.6371C60.4137 36.7455 60.204 36.326 59.339 36.1424C59.1293 36.09 58.6837 36.0638 58.3167 36.0638C58.0284 36.0638 57.8711 36.0113 57.8711 35.8278C57.8711 35.6442 58.0546 35.5918 58.4478 35.5918C59.837 35.5918 61.4884 35.6704 62.2747 35.6704C62.9038 35.6704 64.5552 35.5918 65.4988 35.5918C65.892 35.5918 66.0755 35.6442 66.0755 35.8278C66.0755 36.0113 65.9182 36.0638 65.6561 36.0638C65.3677 36.0638 65.2105 36.09 64.8959 36.1424C64.1882 36.2735 63.9785 36.7193 63.9261 37.6371C63.8737 38.4762 63.8737 39.2104 63.8737 43.1961V46.8672C63.8737 50.6694 64.6338 52.2689 65.9182 53.3178C67.0977 54.288 68.3035 54.3929 69.1947 54.3929C70.348 54.3929 71.7635 54.0258 72.812 52.9769C74.2536 51.5347 74.3323 49.1747 74.3323 46.4739V43.1961C74.3323 39.2104 74.3323 38.4762 74.2798 37.6371C74.2274 36.7455 74.0177 36.326 73.1527 36.1424C72.943 36.09 72.4974 36.0638 72.2091 36.0638C71.9208 36.0638 71.7635 36.0113 71.7635 35.8278C71.7635 35.6442 71.947 35.5918 72.3139 35.5918C73.6507 35.5918 75.3021 35.6704 75.3283 35.6704C75.6429 35.6704 77.2942 35.5918 78.3165 35.5918C78.6835 35.5918 78.8669 35.6442 78.8669 35.8278C78.8669 36.0113 78.7097 36.0638 78.3951 36.0638C78.1068 36.0638 77.9495 36.09 77.635 36.1424C76.9273 36.2735 76.7176 36.7193 76.6651 37.6371C76.6127 38.4762 76.6127 39.2104 76.6127 43.1961V46.0019C76.6127 48.9125 76.3244 52.0067 74.1226 53.8947C72.2615 55.4942 70.3742 55.7827 68.6705 55.7827C67.2812 55.7827 64.7649 55.704 62.8514 53.9734C61.5146 52.7672 60.5185 50.8267 60.5185 47.0245Z" fill="black"/>
<path d="M87.2433 43.1961V47.8112C87.2433 51.1676 87.2433 52.9769 87.7938 53.4489C88.2394 53.8423 88.9209 54.0258 90.9654 54.0258C92.3547 54.0258 93.3769 53.9996 94.0322 53.2916C94.3468 52.9507 94.6613 52.2165 94.7138 51.7183C94.74 51.4823 94.7924 51.325 95.0021 51.325C95.1856 51.325 95.2118 51.4561 95.2118 51.7707C95.2118 52.0592 95.0283 54.0258 94.8186 54.7863C94.6613 55.3631 94.5303 55.4942 93.1672 55.4942C91.28 55.4942 89.917 55.4418 88.7374 55.4156C87.5579 55.3631 86.6142 55.3369 85.5395 55.3369C85.2512 55.3369 84.6746 55.3369 84.0455 55.3631C83.4426 55.3631 82.7611 55.4156 82.2368 55.4156C81.8961 55.4156 81.7126 55.3369 81.7126 55.1534C81.7126 55.0223 81.8174 54.9436 82.132 54.9436C82.5252 54.9436 82.8397 54.8911 83.0756 54.8387C83.5999 54.7338 83.7309 54.1569 83.8358 53.3965C83.9668 52.2952 83.9668 50.2236 83.9668 47.8112V43.1961C83.9668 39.2104 83.9668 38.4762 83.9144 37.6371C83.862 36.7455 83.6523 36.326 82.7873 36.1424C82.5776 36.09 82.263 36.0638 81.9223 36.0638C81.634 36.0638 81.4767 36.0113 81.4767 35.8278C81.4767 35.6442 81.6602 35.5918 82.0533 35.5918C83.2853 35.5918 84.9367 35.6704 85.6444 35.6704C86.2735 35.6704 88.187 35.5918 89.2092 35.5918C89.5762 35.5918 89.7597 35.6442 89.7597 35.8278C89.7597 36.0113 89.6024 36.0638 89.2879 36.0638C88.9995 36.0638 88.5801 36.09 88.2656 36.1424C87.5579 36.2735 87.3482 36.7193 87.2958 37.6371C87.2433 38.4762 87.2433 39.2104 87.2433 43.1961Z" fill="black"/>
<path d="M99.8374 47.8112V43.1961C99.8374 39.2104 99.8374 38.4762 99.785 37.6371C99.7325 36.7455 99.5229 36.326 98.6579 36.1424C98.4482 36.09 98.0026 36.0638 97.6356 36.0638C97.3473 36.0638 97.19 36.0113 97.19 35.8278C97.19 35.6442 97.3735 35.5918 97.7666 35.5918C99.1559 35.5918 100.807 35.6704 101.541 35.6704C102.354 35.6704 104.005 35.5918 105.578 35.5918C108.854 35.5918 113.232 35.5918 116.089 38.5811C117.399 39.9446 118.631 42.121 118.631 45.2414C118.631 48.5454 117.242 51.0627 115.774 52.5574C114.569 53.7898 111.843 55.6516 106.993 55.6516C106.05 55.6516 104.975 55.5729 103.979 55.4942C102.983 55.4156 102.065 55.3369 101.41 55.3369C101.122 55.3369 100.545 55.3369 99.916 55.3631C99.3132 55.3631 98.6316 55.4156 98.1074 55.4156C97.7666 55.4156 97.5832 55.3369 97.5832 55.1534C97.5832 55.0223 97.688 54.9436 98.0026 54.9436C98.3957 54.9436 98.7103 54.8911 98.9462 54.8387C99.4704 54.7338 99.6015 54.1569 99.7063 53.3965C99.8374 52.2952 99.8374 50.2236 99.8374 47.8112ZM103.114 42.7766V46.0806C103.114 48.8601 103.14 50.8792 103.166 51.3774C103.193 52.0329 103.245 53.0818 103.455 53.3703C103.795 53.8685 104.818 54.4191 106.888 54.4191C109.562 54.4191 111.344 53.8947 112.917 52.5312C114.595 51.089 115.119 48.7028 115.119 46.0019C115.119 42.6717 113.73 40.5215 112.603 39.4464C110.191 37.1389 107.203 36.8242 105.158 36.8242C104.634 36.8242 103.664 36.9029 103.455 37.0077C103.219 37.1126 103.14 37.2437 103.14 37.5322C103.114 38.4237 103.114 40.705 103.114 42.7766Z" fill="black"/>
<path d="M127.296 50.7743V48.6241C127.296 47.2081 127.034 46.6312 126.693 45.8708C126.509 45.4512 122.997 39.6824 122.08 38.3188C121.424 37.3486 120.769 36.6931 120.271 36.4046C119.93 36.2211 119.485 36.0638 119.17 36.0638C118.96 36.0638 118.777 36.0113 118.777 35.8278C118.777 35.6704 118.96 35.5918 119.275 35.5918C119.747 35.5918 121.713 35.6704 122.578 35.6704C123.128 35.6704 124.203 35.5918 125.382 35.5918C125.644 35.5918 125.775 35.6704 125.775 35.8278C125.775 35.9851 125.592 36.0113 125.199 36.1162C124.963 36.1686 124.832 36.3784 124.832 36.5882C124.832 36.798 124.963 37.1126 125.146 37.4797C125.513 38.2664 129.183 44.5859 129.602 45.3201C129.865 44.6908 133.167 38.9219 133.534 38.1091C133.796 37.5322 133.901 37.0864 133.901 36.7455C133.901 36.4833 133.796 36.1949 133.351 36.09C133.115 36.0375 132.879 35.9851 132.879 35.8278C132.879 35.6442 133.01 35.5918 133.325 35.5918C134.19 35.5918 135.028 35.6704 135.788 35.6704C136.365 35.6704 138.095 35.5918 138.593 35.5918C138.881 35.5918 139.065 35.6442 139.065 35.8015C139.065 35.9851 138.855 36.0638 138.567 36.0638C138.305 36.0638 137.807 36.1686 137.414 36.3784C136.863 36.6406 136.575 36.9553 135.998 37.6633C135.133 38.7122 131.463 44.8743 130.992 46.0019C130.598 46.9459 130.598 47.7588 130.598 48.6241V50.7743C130.598 51.1938 130.598 52.2952 130.677 53.3965C130.73 54.1569 130.965 54.7338 131.752 54.8387C132.119 54.8911 132.695 54.9436 133.062 54.9436C133.351 54.9436 133.482 55.0223 133.482 55.1534C133.482 55.3369 133.272 55.4156 132.931 55.4156C131.28 55.4156 129.629 55.3369 128.921 55.3369C128.266 55.3369 126.614 55.4156 125.644 55.4156C125.277 55.4156 125.068 55.3631 125.068 55.1534C125.068 55.0223 125.199 54.9436 125.487 54.9436C125.854 54.9436 126.169 54.8911 126.405 54.8387C126.929 54.7338 127.165 54.1569 127.217 53.3965C127.296 52.2952 127.296 51.1938 127.296 50.7743Z" fill="black"/>
<path d="M143.44 53.8947H149.888C152.562 53.8947 153.584 53.2392 154.004 52.4525C154.24 52.0329 154.397 51.5609 154.476 51.1938C154.528 50.9316 154.58 50.7743 154.738 50.7743C154.947 50.7743 155 50.9578 155 51.5872C155 52.4263 154.659 54.1307 154.476 54.7863C154.345 55.2582 154.161 55.468 153.689 55.468C149.312 55.468 144.908 55.3369 139.613 55.3369C139.325 55.3369 139.168 55.2582 139.168 55.0747C139.168 54.8911 139.246 54.76 139.561 54.288C143.257 48.5192 147.136 42.593 150.649 37.0602H145.511C144.174 37.0602 142.575 37.1389 141.737 37.6108C140.872 38.0828 140.4 39.0531 140.321 39.6562C140.269 40.0233 140.164 40.1282 140.007 40.1282C139.823 40.1282 139.797 39.9971 139.797 39.6824C139.797 39.0793 140.19 36.6931 140.321 35.9064C140.374 35.5393 140.478 35.4082 140.636 35.4082C140.872 35.4082 141.029 35.5655 141.684 35.5918C144.174 35.6966 145.432 35.6704 146.507 35.6704H154.502C154.764 35.6704 154.947 35.7491 154.947 35.8802C154.947 36.0375 154.843 36.1949 154.738 36.3784C151.12 42.2521 147.136 48.257 143.44 53.8947Z" fill="black"/>
<path d="M49.9889 49.45V41.2075C49.9889 36.8422 49.9889 36.038 49.9315 35.119C49.8741 34.1426 49.6444 33.683 48.697 33.482C48.4673 33.4246 47.9793 33.3959 47.5774 33.3959C47.2616 33.3959 47.0893 33.3384 47.0893 33.1374C47.0893 32.9363 47.2903 32.8789 47.7209 32.8789C49.2425 32.8789 51.0511 32.9651 51.7975 32.9651C52.4865 32.9651 54.2952 32.8789 55.4148 32.8789C55.8167 32.8789 56.0177 32.9363 56.0177 33.1374C56.0177 33.3384 55.8454 33.3959 55.5009 33.3959C55.1851 33.3959 55.0129 33.4246 54.6684 33.482C53.8932 33.6256 53.6636 34.1138 53.6062 35.119C53.5487 36.038 53.5487 36.8422 53.5487 41.2075V46.5206C53.5487 47.7555 53.6349 49.134 53.6349 50.57C53.6349 52.207 53.52 54.045 52.9459 55.6533C52.343 57.4052 50.8214 59.3868 48.0654 61.0813C47.6922 61.311 47.2329 61.5408 46.63 61.828C46.429 61.9429 46.1994 62.0003 46.0558 62.0003C45.941 62.0003 45.8262 61.9141 45.8262 61.7705C45.8262 61.6269 45.9697 61.5121 46.4578 61.2536C46.831 61.0526 47.2616 60.7366 47.8358 60.1623C50.0176 57.9509 49.9889 55.0789 49.9889 49.45Z" fill="black"/>
<path d="M28.1917 29.6958H15.3877C15.1006 29.6958 14.9858 29.8107 14.871 30.1553L11.7705 38.369C11.1963 39.805 10.9092 41.1835 10.9092 41.8728C10.9092 42.9067 11.426 43.6534 13.2059 43.6534H14.0671C14.7561 43.6534 14.9284 43.7682 14.9284 44.1129C14.9284 44.5724 14.5839 44.6873 13.9523 44.6873C12.115 44.6873 9.64603 44.5149 7.86611 44.5149C7.23453 44.5149 4.0766 44.6873 1.09092 44.6873C0.344501 44.6873 0 44.5724 0 44.1129C0 43.7682 0.229668 43.6534 0.689003 43.6534C1.20575 43.6534 2.00959 43.5959 2.46893 43.5385C5.1101 43.1939 6.20102 41.2409 7.34936 38.369L21.761 2.29755C22.45 0.631823 22.7945 0 23.3687 0C23.8854 0 24.2299 0.516948 24.8041 1.83804C26.1821 4.99716 35.3688 28.4321 39.0435 37.1628C41.2253 42.3323 42.8904 43.1364 44.0962 43.4236C44.9574 43.5959 45.8187 43.6534 46.5077 43.6534C46.967 43.6534 47.2541 43.7108 47.2541 44.1129C47.2541 44.5724 46.7373 44.6873 44.6129 44.6873C42.5459 44.6873 38.3545 44.6873 33.7611 44.5724C32.7276 44.5149 32.0386 44.5149 32.0386 44.1129C32.0386 43.7682 32.2683 43.6534 32.8424 43.5959C33.2444 43.481 33.6463 42.9641 33.3592 42.2748L28.7658 30.0978C28.651 29.8107 28.4788 29.6958 28.1917 29.6958ZM16.5361 26.8238H27.1008C27.3878 26.8238 27.4453 26.6515 27.3878 26.4792L22.2203 12.2919C22.1629 12.0621 22.1055 11.7749 21.9332 11.7749C21.761 11.7749 21.6462 12.0621 21.5887 12.2919L16.3064 26.4218C16.249 26.6515 16.3064 26.8238 16.5361 26.8238Z" fill="black"/>
<path d="M67.7562 26.5049C68.1889 26.5049 68.5495 26.6095 68.838 26.8187C69.1301 27.0279 69.3302 27.3219 69.4384 27.7007H68.8921C68.7154 27.2101 68.335 26.9648 67.7508 26.9648C67.3542 26.9648 67.0296 27.1073 66.7772 27.3923C66.5248 27.67 66.3986 28.0289 66.3986 28.469C66.3986 28.9019 66.5248 29.2608 66.7772 29.5458C67.0296 29.8308 67.3596 29.9733 67.767 29.9733C68.1312 29.9733 68.4197 29.8795 68.6325 29.6919C68.8452 29.5043 68.957 29.2338 68.9678 28.8803H67.8319V28.4203H69.4871V28.6746C69.4871 29.2266 69.3338 29.6576 69.0273 29.9679C68.7172 30.2781 68.2971 30.4332 67.767 30.4332C67.2153 30.4332 66.7646 30.2474 66.4148 29.8759C66.0615 29.5007 65.8848 29.0318 65.8848 28.469C65.8848 27.9027 66.0597 27.4338 66.4094 27.0622C66.7592 26.6907 67.2081 26.5049 67.7562 26.5049Z" fill="black"/>
<path d="M71.5204 26.5752C71.899 26.5752 72.2001 26.6798 72.4237 26.8891C72.6472 27.0947 72.759 27.3706 72.759 27.7169C72.759 27.9658 72.6959 28.1805 72.5697 28.3608C72.4435 28.5376 72.2668 28.6656 72.0396 28.745L72.9213 30.3628H72.3588L71.5312 28.8262H70.9795V30.3628H70.4873V26.5752H71.5204ZM70.9795 28.3825H71.5204C71.7476 28.3825 71.9279 28.3229 72.0613 28.2039C72.1947 28.0849 72.2614 27.9225 72.2614 27.7169C72.2614 27.5041 72.1947 27.3382 72.0613 27.2191C71.9279 27.0965 71.7476 27.0352 71.5204 27.0352H70.9795V28.3825Z" fill="black"/>
<path d="M75.5059 26.5049C76.0684 26.5049 76.53 26.6907 76.8906 27.0622C77.2548 27.4374 77.4369 27.9045 77.4369 28.4636C77.4369 29.03 77.2548 29.5007 76.8906 29.8759C76.53 30.2474 76.0684 30.4332 75.5059 30.4332C74.9398 30.4332 74.4764 30.2474 74.1158 29.8759C73.7516 29.5007 73.5695 29.03 73.5695 28.4636C73.5695 27.9045 73.7516 27.4374 74.1158 27.0622C74.4764 26.6907 74.9398 26.5049 75.5059 26.5049ZM75.5059 26.9648C75.084 26.9648 74.7415 27.1073 74.4782 27.3923C74.215 27.67 74.0834 28.0271 74.0834 28.4636C74.0834 28.9001 74.215 29.2608 74.4782 29.5458C74.7415 29.8308 75.084 29.9733 75.5059 29.9733C75.9206 29.9733 76.2595 29.8308 76.5228 29.5458C76.7896 29.2572 76.923 28.8965 76.923 28.4636C76.923 28.0344 76.7896 27.6772 76.5228 27.3923C76.2595 27.1073 75.9206 26.9648 75.5059 26.9648Z" fill="black"/>
<path d="M81.32 28.864C81.32 29.369 81.192 29.7568 80.9359 30.0274C80.6799 30.2979 80.3139 30.4332 79.838 30.4332C79.362 30.4332 78.9942 30.2979 78.7346 30.0274C78.4785 29.7568 78.3505 29.369 78.3505 28.864V26.5752H78.8427V28.864C78.8427 29.6035 79.1745 29.9733 79.838 29.9733C80.1625 29.9733 80.4077 29.8795 80.5736 29.6919C80.743 29.5043 80.8278 29.2284 80.8278 28.864V26.5752H81.32V28.864Z" fill="black"/>
<path d="M83.5567 26.5752C83.9389 26.5752 84.24 26.6834 84.4599 26.8999C84.6835 27.1127 84.7953 27.3923 84.7953 27.7386C84.7953 28.0813 84.6835 28.359 84.4599 28.5718C84.24 28.7811 83.9389 28.8857 83.5567 28.8857H82.9292V30.3628H82.437V26.5752H83.5567ZM82.9292 28.4257H83.5567C83.7838 28.4257 83.9641 28.3644 84.0975 28.2418C84.231 28.1191 84.2977 27.9514 84.2977 27.7386C84.2977 27.5221 84.2292 27.3508 84.0921 27.2245C83.9587 27.0983 83.7802 27.0352 83.5567 27.0352H82.9292V28.4257Z" fill="black"/>
<path d="M88.8418 26.5049C89.4044 26.5049 89.8659 26.6907 90.2265 27.0622C90.5907 27.4374 90.7728 27.9045 90.7728 28.4636C90.7728 29.03 90.5907 29.5007 90.2265 29.8759C89.8659 30.2474 89.4044 30.4332 88.8418 30.4332C88.2757 30.4332 87.8124 30.2474 87.4518 29.8759C87.0876 29.5007 86.9055 29.03 86.9055 28.4636C86.9055 27.9045 87.0876 27.4374 87.4518 27.0622C87.8124 26.6907 88.2757 26.5049 88.8418 26.5049ZM88.8418 26.9648C88.42 26.9648 88.0774 27.1073 87.8142 27.3923C87.5509 27.67 87.4193 28.0271 87.4193 28.4636C87.4193 28.9001 87.5509 29.2608 87.8142 29.5458C88.0774 29.8308 88.42 29.9733 88.8418 29.9733C89.2565 29.9733 89.5955 29.8308 89.8587 29.5458C90.1255 29.2572 90.259 28.8965 90.259 28.4636C90.259 28.0344 90.1255 27.6772 89.8587 27.3923C89.5955 27.1073 89.2565 26.9648 88.8418 26.9648Z" fill="black"/>
<path d="M93.7743 27.0352H92.2274V28.231H93.5417V28.6963H92.2274V30.3628H91.7352V26.5752H93.7743V27.0352Z" fill="black"/>
<path d="M97.7687 26.5049C98.2014 26.5049 98.562 26.6095 98.8505 26.8187C99.1426 27.0279 99.3427 27.3219 99.4509 27.7007H98.9046C98.7279 27.2101 98.3493 26.9648 97.7687 26.9648C97.3685 26.9648 97.0421 27.1073 96.7897 27.3923C96.5373 27.67 96.4111 28.0289 96.4111 28.469C96.4111 28.9019 96.5373 29.2608 96.7897 29.5458C97.0421 29.8308 97.3703 29.9733 97.7741 29.9733C98.0662 29.9733 98.3114 29.9065 98.5097 29.7731C98.708 29.6396 98.8469 29.4556 98.9262 29.2211H99.4563C99.3481 29.6107 99.1498 29.9101 98.8613 30.1194C98.5728 30.3286 98.2104 30.4332 97.7741 30.4332C97.2224 30.4332 96.7717 30.2474 96.4219 29.8759C96.0721 29.5043 95.8973 29.0354 95.8973 28.469C95.8973 27.9027 96.0721 27.4338 96.4219 27.0622C96.7717 26.6907 97.2206 26.5049 97.7687 26.5049Z" fill="black"/>
<path d="M102.062 26.5049C102.624 26.5049 103.086 26.6907 103.446 27.0622C103.81 27.4374 103.993 27.9045 103.993 28.4636C103.993 29.03 103.81 29.5007 103.446 29.8759C103.086 30.2474 102.624 30.4332 102.062 30.4332C101.495 30.4332 101.032 30.2474 100.672 29.8759C100.307 29.5007 100.125 29.03 100.125 28.4636C100.125 27.9045 100.307 27.4374 100.672 27.0622C101.032 26.6907 101.495 26.5049 102.062 26.5049ZM102.062 26.9648C101.64 26.9648 101.297 27.1073 101.034 27.3923C100.771 27.67 100.639 28.0271 100.639 28.4636C100.639 28.9001 100.771 29.2608 101.034 29.5458C101.297 29.8308 101.64 29.9733 102.062 29.9733C102.476 29.9733 102.815 29.8308 103.078 29.5458C103.345 29.2572 103.479 28.8965 103.479 28.4636C103.479 28.0344 103.345 27.6772 103.078 27.3923C102.815 27.1073 102.476 26.9648 102.062 26.9648Z" fill="black"/>
<path d="M108.849 30.3628H108.357V27.5438L108.254 27.8251L107.097 30.3628H106.702L105.55 27.8251L105.447 27.5438V30.3628H104.955V26.5752H105.496L106.794 29.3564L106.897 29.5999L107.005 29.3564L108.308 26.5752H108.849V30.3628Z" fill="black"/>
<path d="M111.132 26.5752C111.514 26.5752 111.815 26.6834 112.035 26.8999C112.259 27.1127 112.37 27.3923 112.37 27.7386C112.37 28.0813 112.259 28.359 112.035 28.5718C111.815 28.7811 111.514 28.8857 111.132 28.8857H110.504V30.3628H110.012V26.5752H111.132ZM110.504 28.4257H111.132C111.359 28.4257 111.539 28.3644 111.673 28.2418C111.806 28.1191 111.873 27.9514 111.873 27.7386C111.873 27.5221 111.804 27.3508 111.667 27.2245C111.534 27.0983 111.355 27.0352 111.132 27.0352H110.504V28.4257Z" fill="black"/>
<path d="M115.895 30.3628H115.354L114.954 29.3618H113.283L112.888 30.3628H112.347L113.867 26.5752H114.375L115.895 30.3628ZM114.045 27.4139L113.45 28.9019H114.786L114.186 27.4139L114.116 27.2083L114.045 27.4139Z" fill="black"/>
<path d="M119.748 30.3628H119.261L117.379 27.6466L117.233 27.4139V30.3628H116.741V26.5752H117.222L119.094 29.2807L119.256 29.5296V26.5752H119.748V30.3628Z" fill="black"/>
<path d="M121.403 30.3628H120.911V26.5752H121.403V30.3628Z" fill="black"/>
<path d="M124.654 27.0352H123.064V28.1823H124.465V28.6422H123.064V29.9029H124.654V30.3628H122.572V26.5752H124.654V27.0352Z" fill="black"/>
<path d="M126.654 26.5049C126.993 26.5049 127.26 26.5987 127.455 26.7862C127.653 26.9702 127.756 27.2335 127.763 27.5762H127.265C127.262 27.3814 127.204 27.2281 127.092 27.1163C126.98 27.0045 126.831 26.9486 126.643 26.9486C126.463 26.9486 126.32 26.9991 126.216 27.1001C126.111 27.2011 126.059 27.3418 126.059 27.5221C126.059 27.6917 126.111 27.8233 126.216 27.9171C126.328 28.0073 126.526 28.1083 126.811 28.2201C127.204 28.368 127.48 28.5213 127.638 28.6801C127.801 28.8424 127.882 29.0606 127.882 29.3348C127.882 29.6703 127.774 29.9372 127.557 30.1356C127.345 30.334 127.062 30.4332 126.708 30.4332C126.322 30.4332 126.018 30.3268 125.794 30.1139C125.574 29.9011 125.46 29.6125 125.453 29.2482H125.951C125.955 29.4863 126.023 29.6703 126.156 29.8001C126.29 29.93 126.476 29.9949 126.714 29.9949C126.926 29.9949 127.09 29.939 127.206 29.8272C127.325 29.7117 127.384 29.5584 127.384 29.3672C127.384 29.2085 127.325 29.0787 127.206 28.9777C127.087 28.873 126.881 28.7702 126.589 28.6692C126.239 28.5394 125.98 28.3951 125.81 28.2364C125.644 28.074 125.561 27.8486 125.561 27.56C125.561 27.257 125.657 27.0045 125.848 26.8025C126.043 26.6041 126.311 26.5049 126.654 26.5049Z" fill="black"/>
<path fill-rule="evenodd" clip-rule="evenodd" d="M14.0769 27.0339L66.085 27.0339V29.5303L14.0769 29.5303V27.0339Z" fill="black"/>
</svg>
