<svg width="34" height="35" viewBox="0 0 34 35" fill="none" xmlns="http://www.w3.org/2000/svg">
<path d="M10.53 5.45405C10.4837 5.18013 10.4599 4.90286 10.459 4.62505C10.459 3.75905 10.669 2.90505 11.069 2.13805H3.74704L1.86504 5.45405H10.529H10.53ZM20.52 7.46405C19.9177 8.45259 19.0161 9.22353 17.946 9.66505L22.386 17.193L24.256 13.794L20.52 7.46405ZM15.884 0.748047C15.1146 0.748248 14.3625 0.97675 13.723 1.40462C13.0835 1.83249 12.5853 2.4405 12.2916 3.15165C11.9978 3.86281 11.9217 4.64514 12.0728 5.3996C12.2239 6.15405 12.5955 6.84671 13.1404 7.38988C13.6854 7.93304 14.3793 8.30229 15.1343 8.45087C15.8892 8.59945 16.6713 8.52068 17.3815 8.22454C18.0916 7.9284 18.698 7.42819 19.1237 6.78726C19.5494 6.14633 19.7754 5.39348 19.773 4.62405C19.7603 3.59779 19.346 2.61736 18.6191 1.89285C17.8921 1.16834 16.9103 0.757381 15.884 0.748047ZM15.884 6.13805C15.5871 6.13784 15.2968 6.04971 15.0498 5.88477C14.8028 5.71983 14.6102 5.48545 14.4962 5.2112C14.3823 4.93694 14.352 4.63508 14.4094 4.34368C14.4667 4.05227 14.609 3.78436 14.8184 3.57373C15.0278 3.3631 15.2949 3.21918 15.5859 3.1601C15.877 3.10103 16.179 3.12945 16.4539 3.24178C16.7289 3.35411 16.9644 3.54532 17.1308 3.79132C17.2972 4.03731 17.3871 4.32706 17.389 4.62405C17.388 5.02362 17.2294 5.40664 16.9476 5.68993C16.6658 5.97322 16.2836 6.13489 15.884 6.13805ZM30.507 20.104L34 14.233L32.02 10.88L27.94 17.811C29.0022 18.3069 29.8949 19.1044 30.507 20.104ZM19.433 23.225C19.435 23.001 19.448 22.777 19.475 22.554H11.532L13.514 25.891H20.064C19.6493 25.0636 19.4326 24.1506 19.433 23.225ZM25.415 19.337C24.6458 19.337 23.8939 19.5652 23.2543 19.9925C22.6148 20.4199 22.1163 21.0273 21.822 21.738C21.5277 22.4487 21.4507 23.2307 21.6008 23.9851C21.751 24.7395 22.1215 25.4325 22.6655 25.9763C23.2094 26.5202 23.9025 26.8905 24.6569 27.0404C25.4114 27.1904 26.1934 27.1132 26.904 26.8187C27.6146 26.5242 28.2219 26.0256 28.6491 25.3859C29.0763 24.7463 29.3042 23.9943 29.304 23.225C29.2941 22.1968 28.8812 21.2134 28.154 20.4864C27.4268 19.7594 26.4433 19.3467 25.415 19.337ZM25.415 24.726C25.1172 24.7268 24.8259 24.6392 24.578 24.4742C24.33 24.3093 24.1366 24.0744 24.0223 23.7995C23.908 23.5245 23.8778 23.2217 23.9358 22.9296C23.9937 22.6375 24.137 22.3691 24.3476 22.1586C24.5581 21.948 24.8265 21.8047 25.1186 21.7468C25.4107 21.6889 25.7135 21.719 25.9885 21.8333C26.2634 21.9476 26.4983 22.141 26.6632 22.389C26.8282 22.6369 26.9158 22.9282 26.915 23.226C26.9117 23.6228 26.7525 24.0024 26.472 24.283C26.1914 24.5635 25.8118 24.7227 25.415 24.726ZM8.10904 18.102L12.254 10.715H8.42404L4.88404 17.028C6.04674 17.0288 7.17802 17.4056 8.10904 18.102ZM8.20404 26.754C7.28099 27.474 6.14945 27.8754 4.97904 27.898L8.63904 34.216H12.565L8.20404 26.754ZM4.87504 18.574C4.10556 18.5741 3.35338 18.8024 2.71375 19.2301C2.07411 19.6579 1.57578 20.2658 1.28187 20.977C0.987949 21.6881 0.911657 22.4705 1.06265 23.225C1.21365 23.9795 1.58514 24.6723 2.13008 25.2155C2.67503 25.7588 3.36893 26.1281 4.12392 26.2768C4.8789 26.4255 5.66102 26.3467 6.37125 26.0506C7.08148 25.7545 7.68787 25.2543 8.11364 24.6134C8.53941 23.9724 8.76542 23.2195 8.76304 22.45C8.75002 21.424 8.33584 20.4439 7.60917 19.7195C6.88249 18.995 5.90108 18.5839 4.87504 18.574ZM4.87504 23.964C4.57766 23.9634 4.2871 23.8748 4.04001 23.7093C3.79292 23.5438 3.60036 23.3089 3.4866 23.0341C3.37284 22.7594 3.34298 22.4571 3.40079 22.1653C3.45859 21.8736 3.60146 21.6055 3.8114 21.3949C4.02134 21.1843 4.28894 21.0405 4.58047 20.9817C4.87199 20.923 5.17439 20.9518 5.44954 21.0647C5.72468 21.1775 5.96026 21.3693 6.12657 21.6159C6.29287 21.8624 6.38246 22.1527 6.38404 22.45C6.38431 22.8513 6.22556 23.2364 5.94256 23.5209C5.65955 23.8054 5.27534 23.9662 4.87404 23.968V23.963L4.87504 23.964Z" fill="#BE1E2D"/>
</svg>
