<svg width="42" height="43" viewBox="0 0 42 43" fill="none" xmlns="http://www.w3.org/2000/svg">
<g clip-path="url(#clip0_257_2)" filter="url(#filter0_d_257_2)">
<path d="M14.53 5.45405C14.4837 5.18013 14.4599 4.90286 14.459 4.62505C14.459 3.75905 14.669 2.90505 15.069 2.13805H7.74704L5.86504 5.45405H14.53ZM24.52 7.46405C23.9177 8.45259 23.0161 9.22353 21.946 9.66505L26.386 17.193L28.256 13.794L24.52 7.46405ZM19.884 0.748047C19.1146 0.748248 18.3625 0.97675 17.723 1.40462C17.0835 1.83249 16.5853 2.4405 16.2916 3.15165C15.9978 3.86281 15.9217 4.64514 16.0728 5.3996C16.2239 6.15405 16.5955 6.84671 17.1404 7.38988C17.6854 7.93304 18.3793 8.30229 19.1343 8.45087C19.8892 8.59945 20.6713 8.52068 21.3815 8.22454C22.0916 7.9284 22.698 7.42819 23.1237 6.78726C23.5494 6.14633 23.7754 5.39348 23.773 4.62405C23.7603 3.59779 23.346 2.61736 22.6191 1.89285C21.8921 1.16834 20.9103 0.757381 19.884 0.748047ZM19.884 6.13805C19.5871 6.13784 19.2968 6.04971 19.0498 5.88477C18.8028 5.71983 18.6102 5.48545 18.4962 5.2112C18.3823 4.93694 18.352 4.63508 18.4094 4.34368C18.4667 4.05227 18.609 3.78436 18.8184 3.57373C19.0278 3.3631 19.2949 3.21918 19.5859 3.1601C19.877 3.10103 20.179 3.12945 20.4539 3.24178C20.7289 3.35411 20.9644 3.54532 21.1308 3.79132C21.2972 4.03731 21.3871 4.32706 21.389 4.62405C21.388 5.02362 21.2294 5.40664 20.9476 5.68993C20.6658 5.97322 20.2836 6.13489 19.884 6.13805ZM34.507 20.104L38 14.233L36.02 10.88L31.94 17.811C33.0022 18.3069 33.8949 19.1044 34.507 20.104ZM23.433 23.225C23.435 23.001 23.448 22.777 23.475 22.554H15.532L17.514 25.891H24.064C23.6493 25.0636 23.4326 24.1506 23.433 23.225ZM29.415 19.337C28.6458 19.337 27.8939 19.5652 27.2543 19.9925C26.6148 20.4199 26.1163 21.0273 25.822 21.738C25.5277 22.4487 25.4507 23.2307 25.6008 23.9851C25.751 24.7395 26.1215 25.4325 26.6655 25.9763C27.2094 26.5202 27.9025 26.8905 28.6569 27.0404C29.4114 27.1904 30.1934 27.1132 30.904 26.8187C31.6146 26.5242 32.2219 26.0256 32.6491 25.3859C33.0763 24.7463 33.3042 23.9943 33.304 23.225C33.2941 22.1968 32.8812 21.2134 32.154 20.4864C31.4268 19.7594 30.4433 19.3467 29.415 19.337ZM29.415 24.726C29.1172 24.7268 28.8259 24.6392 28.578 24.4742C28.33 24.3093 28.1366 24.0744 28.0223 23.7995C27.908 23.5245 27.8778 23.2217 27.9358 22.9296C27.9937 22.6375 28.137 22.3691 28.3476 22.1586C28.5581 21.948 28.8265 21.8047 29.1186 21.7468C29.4107 21.6889 29.7135 21.719 29.9885 21.8333C30.2634 21.9476 30.4983 22.141 30.6632 22.389C30.8282 22.6369 30.9158 22.9282 30.915 23.226C30.9117 23.6228 30.7525 24.0024 30.472 24.283C30.1914 24.5635 29.8118 24.7227 29.415 24.726ZM12.109 18.102L16.254 10.715H12.424L8.88404 17.028C10.0467 17.0288 11.178 17.4056 12.109 18.102ZM12.204 26.754C11.281 27.474 10.1495 27.8754 8.97904 27.898L12.639 34.216H16.565L12.204 26.754ZM8.87504 18.574C8.10556 18.5741 7.35338 18.8024 6.71375 19.2301C6.07411 19.6579 5.57578 20.2658 5.28187 20.977C4.98795 21.6881 4.91166 22.4705 5.06265 23.225C5.21365 23.9795 5.58514 24.6723 6.13008 25.2155C6.67503 25.7588 7.36893 26.1281 8.12392 26.2768C8.8789 26.4255 9.66102 26.3467 10.3713 26.0506C11.0815 25.7545 11.6879 25.2543 12.1136 24.6134C12.5394 23.9724 12.7654 23.2195 12.763 22.45C12.75 21.424 12.3358 20.4439 11.6092 19.7195C10.8825 18.995 9.90108 18.5839 8.87504 18.574ZM8.87504 23.964C8.57766 23.9634 8.2871 23.8748 8.04001 23.7093C7.79292 23.5438 7.60036 23.3089 7.4866 23.0341C7.37284 22.7594 7.34298 22.4571 7.40079 22.1653C7.45859 21.8736 7.60146 21.6055 7.8114 21.3949C8.02134 21.1843 8.28894 21.0405 8.58047 20.9817C8.87199 20.923 9.17439 20.9518 9.44954 21.0647C9.72468 21.1775 9.96026 21.3693 10.1266 21.6159C10.2929 21.8624 10.3825 22.1527 10.384 22.45C10.3843 22.8513 10.2256 23.2364 9.94256 23.5209C9.65955 23.8054 9.27534 23.9662 8.87404 23.968V23.963L8.87504 23.964Z" fill="white"/>
</g>
<defs>
<filter id="filter0_d_257_2" x="0" y="0" width="42" height="43" filterUnits="userSpaceOnUse" color-interpolation-filters="sRGB">
<feFlood flood-opacity="0" result="BackgroundImageFix"/>
<feColorMatrix in="SourceAlpha" type="matrix" values="0 0 0 0 0 0 0 0 0 0 0 0 0 0 0 0 0 0 127 0" result="hardAlpha"/>
<feOffset dy="4"/>
<feGaussianBlur stdDeviation="2"/>
<feComposite in2="hardAlpha" operator="out"/>
<feColorMatrix type="matrix" values="0 0 0 0 0 0 0 0 0 0 0 0 0 0 0 0 0 0 0.25 0"/>
<feBlend mode="normal" in2="BackgroundImageFix" result="effect1_dropShadow_257_2"/>
<feBlend mode="normal" in="SourceGraphic" in2="effect1_dropShadow_257_2" result="shape"/>
</filter>
<clipPath id="clip0_257_2">
<rect width="34" height="35" fill="white" transform="translate(4)"/>
</clipPath>
</defs>
</svg>
